<?xml version="1.0" encoding="utf-8" standalone="no"?>
<!DOCTYPE svg PUBLIC "-//W3C//DTD SVG 1.1//EN"
  "http://www.w3.org/Graphics/SVG/1.1/DTD/svg11.dtd">
<svg xmlns:xlink="http://www.w3.org/1999/xlink" width="451.038322pt" height="337.397536pt" viewBox="0 0 451.038322 337.397536" xmlns="http://www.w3.org/2000/svg" version="1.1">
 <metadata>
  <rdf:RDF xmlns:dc="http://purl.org/dc/elements/1.1/" xmlns:cc="http://creativecommons.org/ns#" xmlns:rdf="http://www.w3.org/1999/02/22-rdf-syntax-ns#">
   <cc:Work>
    <dc:type rdf:resource="http://purl.org/dc/dcmitype/StillImage"/>
    <dc:date>2025-04-02T13:36:57.828903</dc:date>
    <dc:format>image/svg+xml</dc:format>
    <dc:creator>
     <cc:Agent>
      <dc:title>Matplotlib v3.6.2, https://matplotlib.org/</dc:title>
     </cc:Agent>
    </dc:creator>
   </cc:Work>
  </rdf:RDF>
 </metadata>
 <defs>
  <style type="text/css">*{stroke-linejoin: round; stroke-linecap: butt}</style>
 </defs>
 <g id="figure_1">
  <g id="patch_1">
   <path d="M 0 337.397536 
L 451.038322 337.397536 
L 451.038322 0 
L 0 0 
z
" style="fill: #ffffff"/>
  </g>
  <g id="axes_1">
   <g id="patch_2">
    <path d="M 11.017937 330.197536 
L 443.838322 330.197536 
L 443.838322 7.2 
L 11.017937 7.2 
z
" style="fill: #ffffff"/>
   </g>
   <g id="matplotlib.axis_1">
    <g id="xtick_1">
     <g id="line2d_1">
      <defs>
       <path id="ma33db4c360" d="M 0 0 
L 0 3.5 
" style="stroke: #000000; stroke-width: 0.8"/>
      </defs>
      <g>
       <use xlink:href="#ma33db4c360" x="19.341406" y="168.698495" style="stroke: #000000; stroke-width: 0.8"/>
      </g>
     </g>
     <g id="text_1">
      <!-- −1.0 -->
      <g transform="translate(7.2 183.296932) scale(0.1 -0.1)">
       <defs>
        <path id="DejaVuSans-2212" d="M 678 2272 
L 4684 2272 
L 4684 1741 
L 678 1741 
L 678 2272 
z
" transform="scale(0.015625)"/>
        <path id="DejaVuSans-31" d="M 794 531 
L 1825 531 
L 1825 4091 
L 703 3866 
L 703 4441 
L 1819 4666 
L 2450 4666 
L 2450 531 
L 3481 531 
L 3481 0 
L 794 0 
L 794 531 
z
" transform="scale(0.015625)"/>
        <path id="DejaVuSans-2e" d="M 684 794 
L 1344 794 
L 1344 0 
L 684 0 
L 684 794 
z
" transform="scale(0.015625)"/>
        <path id="DejaVuSans-30" d="M 2034 4250 
Q 1547 4250 1301 3770 
Q 1056 3291 1056 2328 
Q 1056 1369 1301 889 
Q 1547 409 2034 409 
Q 2525 409 2770 889 
Q 3016 1369 3016 2328 
Q 3016 3291 2770 3770 
Q 2525 4250 2034 4250 
z
M 2034 4750 
Q 2819 4750 3233 4129 
Q 3647 3509 3647 2328 
Q 3647 1150 3233 529 
Q 2819 -91 2034 -91 
Q 1250 -91 836 529 
Q 422 1150 422 2328 
Q 422 3509 836 4129 
Q 1250 4750 2034 4750 
z
" transform="scale(0.015625)"/>
       </defs>
       <use xlink:href="#DejaVuSans-2212"/>
       <use xlink:href="#DejaVuSans-31" x="83.789062"/>
       <use xlink:href="#DejaVuSans-2e" x="147.412109"/>
       <use xlink:href="#DejaVuSans-30" x="179.199219"/>
      </g>
     </g>
    </g>
    <g id="xtick_2">
     <g id="line2d_2">
      <g>
       <use xlink:href="#ma33db4c360" x="123.384768" y="168.698495" style="stroke: #000000; stroke-width: 0.8"/>
      </g>
     </g>
     <g id="text_2">
      <!-- −0.5 -->
      <g transform="translate(111.243362 183.296932) scale(0.1 -0.1)">
       <defs>
        <path id="DejaVuSans-35" d="M 691 4666 
L 3169 4666 
L 3169 4134 
L 1269 4134 
L 1269 2991 
Q 1406 3038 1543 3061 
Q 1681 3084 1819 3084 
Q 2600 3084 3056 2656 
Q 3513 2228 3513 1497 
Q 3513 744 3044 326 
Q 2575 -91 1722 -91 
Q 1428 -91 1123 -41 
Q 819 9 494 109 
L 494 744 
Q 775 591 1075 516 
Q 1375 441 1709 441 
Q 2250 441 2565 725 
Q 2881 1009 2881 1497 
Q 2881 1984 2565 2268 
Q 2250 2553 1709 2553 
Q 1456 2553 1204 2497 
Q 953 2441 691 2322 
L 691 4666 
z
" transform="scale(0.015625)"/>
       </defs>
       <use xlink:href="#DejaVuSans-2212"/>
       <use xlink:href="#DejaVuSans-30" x="83.789062"/>
       <use xlink:href="#DejaVuSans-2e" x="147.412109"/>
       <use xlink:href="#DejaVuSans-35" x="179.199219"/>
      </g>
     </g>
    </g>
    <g id="xtick_3">
     <g id="line2d_3">
      <g>
       <use xlink:href="#ma33db4c360" x="227.42813" y="168.698495" style="stroke: #000000; stroke-width: 0.8"/>
      </g>
     </g>
    </g>
    <g id="xtick_4">
     <g id="line2d_4">
      <g>
       <use xlink:href="#ma33db4c360" x="331.471491" y="168.698495" style="stroke: #000000; stroke-width: 0.8"/>
      </g>
     </g>
     <g id="text_3">
      <!-- 0.5 -->
      <g transform="translate(323.519929 183.296932) scale(0.1 -0.1)">
       <use xlink:href="#DejaVuSans-30"/>
       <use xlink:href="#DejaVuSans-2e" x="63.623047"/>
       <use xlink:href="#DejaVuSans-35" x="95.410156"/>
      </g>
     </g>
    </g>
    <g id="xtick_5">
     <g id="line2d_5">
      <g>
       <use xlink:href="#ma33db4c360" x="435.514853" y="168.698495" style="stroke: #000000; stroke-width: 0.8"/>
      </g>
     </g>
     <g id="text_4">
      <!-- 1.0 -->
      <g transform="translate(427.56329 183.296932) scale(0.1 -0.1)">
       <use xlink:href="#DejaVuSans-31"/>
       <use xlink:href="#DejaVuSans-2e" x="63.623047"/>
       <use xlink:href="#DejaVuSans-30" x="95.410156"/>
      </g>
     </g>
    </g>
    <g id="xtick_6">
     <g id="line2d_6">
      <defs>
       <path id="me7f313b5c6" d="M 0 0 
L 0 2 
" style="stroke: #000000; stroke-width: 0.6"/>
      </defs>
      <g>
       <use xlink:href="#me7f313b5c6" x="40.150079" y="168.698495" style="stroke: #000000; stroke-width: 0.6"/>
      </g>
     </g>
    </g>
    <g id="xtick_7">
     <g id="line2d_7">
      <g>
       <use xlink:href="#me7f313b5c6" x="60.958751" y="168.698495" style="stroke: #000000; stroke-width: 0.6"/>
      </g>
     </g>
    </g>
    <g id="xtick_8">
     <g id="line2d_8">
      <g>
       <use xlink:href="#me7f313b5c6" x="81.767423" y="168.698495" style="stroke: #000000; stroke-width: 0.6"/>
      </g>
     </g>
    </g>
    <g id="xtick_9">
     <g id="line2d_9">
      <g>
       <use xlink:href="#me7f313b5c6" x="102.576096" y="168.698495" style="stroke: #000000; stroke-width: 0.6"/>
      </g>
     </g>
    </g>
    <g id="xtick_10">
     <g id="line2d_10">
      <g>
       <use xlink:href="#me7f313b5c6" x="144.19344" y="168.698495" style="stroke: #000000; stroke-width: 0.6"/>
      </g>
     </g>
    </g>
    <g id="xtick_11">
     <g id="line2d_11">
      <g>
       <use xlink:href="#me7f313b5c6" x="165.002113" y="168.698495" style="stroke: #000000; stroke-width: 0.6"/>
      </g>
     </g>
    </g>
    <g id="xtick_12">
     <g id="line2d_12">
      <g>
       <use xlink:href="#me7f313b5c6" x="185.810785" y="168.698495" style="stroke: #000000; stroke-width: 0.6"/>
      </g>
     </g>
    </g>
    <g id="xtick_13">
     <g id="line2d_13">
      <g>
       <use xlink:href="#me7f313b5c6" x="206.619457" y="168.698495" style="stroke: #000000; stroke-width: 0.6"/>
      </g>
     </g>
    </g>
    <g id="xtick_14">
     <g id="line2d_14">
      <g>
       <use xlink:href="#me7f313b5c6" x="248.236802" y="168.698495" style="stroke: #000000; stroke-width: 0.6"/>
      </g>
     </g>
    </g>
    <g id="xtick_15">
     <g id="line2d_15">
      <g>
       <use xlink:href="#me7f313b5c6" x="269.045474" y="168.698495" style="stroke: #000000; stroke-width: 0.6"/>
      </g>
     </g>
    </g>
    <g id="xtick_16">
     <g id="line2d_16">
      <g>
       <use xlink:href="#me7f313b5c6" x="289.854147" y="168.698495" style="stroke: #000000; stroke-width: 0.6"/>
      </g>
     </g>
    </g>
    <g id="xtick_17">
     <g id="line2d_17">
      <g>
       <use xlink:href="#me7f313b5c6" x="310.662819" y="168.698495" style="stroke: #000000; stroke-width: 0.6"/>
      </g>
     </g>
    </g>
    <g id="xtick_18">
     <g id="line2d_18">
      <g>
       <use xlink:href="#me7f313b5c6" x="352.280164" y="168.698495" style="stroke: #000000; stroke-width: 0.6"/>
      </g>
     </g>
    </g>
    <g id="xtick_19">
     <g id="line2d_19">
      <g>
       <use xlink:href="#me7f313b5c6" x="373.088836" y="168.698495" style="stroke: #000000; stroke-width: 0.6"/>
      </g>
     </g>
    </g>
    <g id="xtick_20">
     <g id="line2d_20">
      <g>
       <use xlink:href="#me7f313b5c6" x="393.897508" y="168.698495" style="stroke: #000000; stroke-width: 0.6"/>
      </g>
     </g>
    </g>
    <g id="xtick_21">
     <g id="line2d_21">
      <g>
       <use xlink:href="#me7f313b5c6" x="414.706181" y="168.698495" style="stroke: #000000; stroke-width: 0.6"/>
      </g>
     </g>
    </g>
   </g>
   <g id="matplotlib.axis_2">
    <g id="ytick_1">
     <g id="line2d_22">
      <defs>
       <path id="mcf8e083545" d="M 0 0 
L -3.5 0 
" style="stroke: #000000; stroke-width: 0.8"/>
      </defs>
      <g>
       <use xlink:href="#mcf8e083545" x="227.42813" y="323.986048" style="stroke: #000000; stroke-width: 0.8"/>
      </g>
     </g>
     <g id="text_5">
      <!-- −1.5 -->
      <g transform="translate(196.145317 327.785267) scale(0.1 -0.1)">
       <use xlink:href="#DejaVuSans-2212"/>
       <use xlink:href="#DejaVuSans-31" x="83.789062"/>
       <use xlink:href="#DejaVuSans-2e" x="147.412109"/>
       <use xlink:href="#DejaVuSans-35" x="179.199219"/>
      </g>
     </g>
    </g>
    <g id="ytick_2">
     <g id="line2d_23">
      <g>
       <use xlink:href="#mcf8e083545" x="227.42813" y="272.22353" style="stroke: #000000; stroke-width: 0.8"/>
      </g>
     </g>
     <g id="text_6">
      <!-- −1.0 -->
      <g transform="translate(196.145317 276.022749) scale(0.1 -0.1)">
       <use xlink:href="#DejaVuSans-2212"/>
       <use xlink:href="#DejaVuSans-31" x="83.789062"/>
       <use xlink:href="#DejaVuSans-2e" x="147.412109"/>
       <use xlink:href="#DejaVuSans-30" x="179.199219"/>
      </g>
     </g>
    </g>
    <g id="ytick_3">
     <g id="line2d_24">
      <g>
       <use xlink:href="#mcf8e083545" x="227.42813" y="220.461012" style="stroke: #000000; stroke-width: 0.8"/>
      </g>
     </g>
     <g id="text_7">
      <!-- −0.5 -->
      <g transform="translate(196.145317 224.260231) scale(0.1 -0.1)">
       <use xlink:href="#DejaVuSans-2212"/>
       <use xlink:href="#DejaVuSans-30" x="83.789062"/>
       <use xlink:href="#DejaVuSans-2e" x="147.412109"/>
       <use xlink:href="#DejaVuSans-35" x="179.199219"/>
      </g>
     </g>
    </g>
    <g id="ytick_4">
     <g id="line2d_25">
      <g>
       <use xlink:href="#mcf8e083545" x="227.42813" y="168.698495" style="stroke: #000000; stroke-width: 0.8"/>
      </g>
     </g>
    </g>
    <g id="ytick_5">
     <g id="line2d_26">
      <g>
       <use xlink:href="#mcf8e083545" x="227.42813" y="116.935977" style="stroke: #000000; stroke-width: 0.8"/>
      </g>
     </g>
     <g id="text_8">
      <!-- 0.5 -->
      <g transform="translate(204.525005 120.735195) scale(0.1 -0.1)">
       <use xlink:href="#DejaVuSans-30"/>
       <use xlink:href="#DejaVuSans-2e" x="63.623047"/>
       <use xlink:href="#DejaVuSans-35" x="95.410156"/>
      </g>
     </g>
    </g>
    <g id="ytick_6">
     <g id="line2d_27">
      <g>
       <use xlink:href="#mcf8e083545" x="227.42813" y="65.173459" style="stroke: #000000; stroke-width: 0.8"/>
      </g>
     </g>
     <g id="text_9">
      <!-- 1.0 -->
      <g transform="translate(204.525005 68.972678) scale(0.1 -0.1)">
       <use xlink:href="#DejaVuSans-31"/>
       <use xlink:href="#DejaVuSans-2e" x="63.623047"/>
       <use xlink:href="#DejaVuSans-30" x="95.410156"/>
      </g>
     </g>
    </g>
    <g id="ytick_7">
     <g id="line2d_28">
      <g>
       <use xlink:href="#mcf8e083545" x="227.42813" y="13.410941" style="stroke: #000000; stroke-width: 0.8"/>
      </g>
     </g>
     <g id="text_10">
      <!-- 1.5 -->
      <g transform="translate(204.525005 17.21016) scale(0.1 -0.1)">
       <use xlink:href="#DejaVuSans-31"/>
       <use xlink:href="#DejaVuSans-2e" x="63.623047"/>
       <use xlink:href="#DejaVuSans-35" x="95.410156"/>
      </g>
     </g>
    </g>
    <g id="ytick_8">
     <g id="line2d_29">
      <defs>
       <path id="me2ab20b71c" d="M 0 0 
L -2 0 
" style="stroke: #000000; stroke-width: 0.6"/>
      </defs>
      <g>
       <use xlink:href="#me2ab20b71c" x="227.42813" y="313.633544" style="stroke: #000000; stroke-width: 0.6"/>
      </g>
     </g>
    </g>
    <g id="ytick_9">
     <g id="line2d_30">
      <g>
       <use xlink:href="#me2ab20b71c" x="227.42813" y="303.281041" style="stroke: #000000; stroke-width: 0.6"/>
      </g>
     </g>
    </g>
    <g id="ytick_10">
     <g id="line2d_31">
      <g>
       <use xlink:href="#me2ab20b71c" x="227.42813" y="292.928537" style="stroke: #000000; stroke-width: 0.6"/>
      </g>
     </g>
    </g>
    <g id="ytick_11">
     <g id="line2d_32">
      <g>
       <use xlink:href="#me2ab20b71c" x="227.42813" y="282.576034" style="stroke: #000000; stroke-width: 0.6"/>
      </g>
     </g>
    </g>
    <g id="ytick_12">
     <g id="line2d_33">
      <g>
       <use xlink:href="#me2ab20b71c" x="227.42813" y="261.871027" style="stroke: #000000; stroke-width: 0.6"/>
      </g>
     </g>
    </g>
    <g id="ytick_13">
     <g id="line2d_34">
      <g>
       <use xlink:href="#me2ab20b71c" x="227.42813" y="251.518523" style="stroke: #000000; stroke-width: 0.6"/>
      </g>
     </g>
    </g>
    <g id="ytick_14">
     <g id="line2d_35">
      <g>
       <use xlink:href="#me2ab20b71c" x="227.42813" y="241.166019" style="stroke: #000000; stroke-width: 0.6"/>
      </g>
     </g>
    </g>
    <g id="ytick_15">
     <g id="line2d_36">
      <g>
       <use xlink:href="#me2ab20b71c" x="227.42813" y="230.813516" style="stroke: #000000; stroke-width: 0.6"/>
      </g>
     </g>
    </g>
    <g id="ytick_16">
     <g id="line2d_37">
      <g>
       <use xlink:href="#me2ab20b71c" x="227.42813" y="210.108509" style="stroke: #000000; stroke-width: 0.6"/>
      </g>
     </g>
    </g>
    <g id="ytick_17">
     <g id="line2d_38">
      <g>
       <use xlink:href="#me2ab20b71c" x="227.42813" y="199.756005" style="stroke: #000000; stroke-width: 0.6"/>
      </g>
     </g>
    </g>
    <g id="ytick_18">
     <g id="line2d_39">
      <g>
       <use xlink:href="#me2ab20b71c" x="227.42813" y="189.403502" style="stroke: #000000; stroke-width: 0.6"/>
      </g>
     </g>
    </g>
    <g id="ytick_19">
     <g id="line2d_40">
      <g>
       <use xlink:href="#me2ab20b71c" x="227.42813" y="179.050998" style="stroke: #000000; stroke-width: 0.6"/>
      </g>
     </g>
    </g>
    <g id="ytick_20">
     <g id="line2d_41">
      <g>
       <use xlink:href="#me2ab20b71c" x="227.42813" y="158.345991" style="stroke: #000000; stroke-width: 0.6"/>
      </g>
     </g>
    </g>
    <g id="ytick_21">
     <g id="line2d_42">
      <g>
       <use xlink:href="#me2ab20b71c" x="227.42813" y="147.993487" style="stroke: #000000; stroke-width: 0.6"/>
      </g>
     </g>
    </g>
    <g id="ytick_22">
     <g id="line2d_43">
      <g>
       <use xlink:href="#me2ab20b71c" x="227.42813" y="137.640984" style="stroke: #000000; stroke-width: 0.6"/>
      </g>
     </g>
    </g>
    <g id="ytick_23">
     <g id="line2d_44">
      <g>
       <use xlink:href="#me2ab20b71c" x="227.42813" y="127.28848" style="stroke: #000000; stroke-width: 0.6"/>
      </g>
     </g>
    </g>
    <g id="ytick_24">
     <g id="line2d_45">
      <g>
       <use xlink:href="#me2ab20b71c" x="227.42813" y="106.583473" style="stroke: #000000; stroke-width: 0.6"/>
      </g>
     </g>
    </g>
    <g id="ytick_25">
     <g id="line2d_46">
      <g>
       <use xlink:href="#me2ab20b71c" x="227.42813" y="96.23097" style="stroke: #000000; stroke-width: 0.6"/>
      </g>
     </g>
    </g>
    <g id="ytick_26">
     <g id="line2d_47">
      <g>
       <use xlink:href="#me2ab20b71c" x="227.42813" y="85.878466" style="stroke: #000000; stroke-width: 0.6"/>
      </g>
     </g>
    </g>
    <g id="ytick_27">
     <g id="line2d_48">
      <g>
       <use xlink:href="#me2ab20b71c" x="227.42813" y="75.525962" style="stroke: #000000; stroke-width: 0.6"/>
      </g>
     </g>
    </g>
    <g id="ytick_28">
     <g id="line2d_49">
      <g>
       <use xlink:href="#me2ab20b71c" x="227.42813" y="54.820955" style="stroke: #000000; stroke-width: 0.6"/>
      </g>
     </g>
    </g>
    <g id="ytick_29">
     <g id="line2d_50">
      <g>
       <use xlink:href="#me2ab20b71c" x="227.42813" y="44.468452" style="stroke: #000000; stroke-width: 0.6"/>
      </g>
     </g>
    </g>
    <g id="ytick_30">
     <g id="line2d_51">
      <g>
       <use xlink:href="#me2ab20b71c" x="227.42813" y="34.115948" style="stroke: #000000; stroke-width: 0.6"/>
      </g>
     </g>
    </g>
    <g id="ytick_31">
     <g id="line2d_52">
      <g>
       <use xlink:href="#me2ab20b71c" x="227.42813" y="23.763445" style="stroke: #000000; stroke-width: 0.6"/>
      </g>
     </g>
    </g>
   </g>
   <g id="line2d_53">
    <path d="M 19.341406 168.698495 
L 33.820069 191.148435 
L 42.767987 204.554944 
L 48.406189 212.682029 
L 55.561478 222.529936 
L 60.879234 229.448393 
L 64.860594 234.374344 
L 69.951602 240.325291 
L 74.009536 244.76737 
L 78.42783 249.278818 
L 82.79334 253.384424 
L 86.841817 256.863587 
L 91.099156 260.166824 
L 93.754821 262.036825 
L 97.211447 264.245685 
L 100.006551 265.841837 
L 103.753252 267.709624 
L 106.410377 268.842597 
L 109.763819 270.042257 
L 112.503181 270.829623 
L 116.119006 271.601297 
L 119.142214 272.011239 
L 122.399259 272.212071 
L 125.452573 272.173086 
L 129.430618 271.792568 
L 133.129042 271.105272 
L 135.812079 270.406733 
L 139.784415 269.066523 
L 143.217308 267.617403 
L 146.496987 265.984765 
L 150.465401 263.690841 
L 154.550827 260.973268 
L 157.673737 258.658693 
L 160.438421 256.442594 
L 164.663348 252.762131 
L 168.458672 249.16392 
L 172.663451 244.869647 
L 177.414344 239.649357 
L 181.614482 234.729457 
L 185.091456 230.454947 
L 190.085998 224.020148 
L 195.053969 217.307613 
L 201.850173 207.689885 
L 208.522058 197.848516 
L 215.346588 187.477059 
L 230.818251 163.402146 
L 243.016654 144.558381 
L 250.60148 133.213599 
L 256.813422 124.261989 
L 262.23976 116.759423 
L 267.761854 109.48243 
L 272.804788 103.194999 
L 277.202743 98.020315 
L 282.226525 92.491663 
L 286.653361 87.982142 
L 290.790925 84.092777 
L 295.425433 80.128823 
L 299.369056 77.096424 
L 303.560685 74.229437 
L 306.598532 72.387387 
L 309.991187 70.569779 
L 313.645555 68.90002 
L 317.203071 67.566213 
L 320.360704 66.626565 
L 323.857678 65.856666 
L 327.041001 65.404968 
L 329.094763 65.240099 
L 332.397128 65.183568 
L 335.299058 65.346262 
L 337.94838 65.668012 
L 340.739672 66.185287 
L 344.16497 67.068672 
L 347.769596 68.29169 
L 350.599621 69.460435 
L 353.874026 71.038576 
L 357.898772 73.304804 
L 361.78369 75.826371 
L 366.101459 79.003235 
L 369.51993 81.789393 
L 372.574183 84.474707 
L 376.226301 87.920207 
L 380.820699 92.602035 
L 384.496199 96.612123 
L 388.998634 101.825529 
L 394.414572 108.503664 
L 399.165634 114.694738 
L 404.242439 121.616402 
L 411.509516 131.994836 
L 418.589845 142.532132 
L 429.713732 159.643098 
L 435.514853 168.698495 
L 435.514853 168.698495 
" clip-path="url(#pfe7ff1440c)" style="fill: none; stroke: #0000ff; stroke-linecap: square"/>
   </g>
   <g id="line2d_54">
    <path d="M 19.341406 168.698495 
L 36.149008 181.692884 
L 44.272244 187.724794 
L 51.780964 193.048165 
L 58.303575 197.421051 
L 63.900621 200.953076 
L 68.624373 203.755874 
L 75.253751 207.385717 
L 81.91639 210.643572 
L 87.496917 213.047216 
L 92.532196 214.94643 
L 96.103594 216.132146 
L 101.282431 217.605795 
L 106.86637 218.859685 
L 110.29742 219.45388 
L 113.889373 219.930032 
L 118.878414 220.341261 
L 122.885727 220.459543 
L 126.002222 220.420601 
L 130.984714 220.12065 
L 134.987711 219.668836 
L 139.921374 218.856171 
L 144.082736 217.95424 
L 148.402851 216.812338 
L 153.967249 215.040845 
L 158.945563 213.17848 
L 165.178339 210.494154 
L 170.93608 207.685214 
L 175.797812 205.083219 
L 182.243761 201.333738 
L 187.744275 197.888531 
L 194.501337 193.38351 
L 202.42581 187.776734 
L 211.438501 181.073144 
L 222.707498 172.384477 
L 244.921033 155.186408 
L 253.02541 149.18881 
L 259.672028 144.483861 
L 266.114577 140.155442 
L 271.828986 136.540796 
L 278.50795 132.621016 
L 283.931534 129.705938 
L 289.842775 126.826962 
L 294.622142 124.741923 
L 300.568813 122.468159 
L 304.765783 121.0866 
L 308.45741 120.029192 
L 313.559966 118.817083 
L 318.687601 117.897088 
L 323.321698 117.327305 
L 328.302432 116.995211 
L 332.785563 116.946163 
L 337.545417 117.153463 
L 342.001377 117.5887 
L 345.473032 118.088183 
L 349.722122 118.888529 
L 353.891835 119.873155 
L 358.358973 121.142514 
L 363.658618 122.928333 
L 368.709662 124.90314 
L 374.076371 127.279995 
L 378.996189 129.698096 
L 385.416988 133.175244 
L 390.386966 136.097524 
L 396.067247 139.661112 
L 403.94942 144.953741 
L 411.286813 150.184035 
L 418.773972 155.754584 
L 430.599256 164.860553 
L 435.514853 168.698495 
L 435.514853 168.698495 
" clip-path="url(#pfe7ff1440c)" style="fill: none; stroke: #ff0000; stroke-linecap: square"/>
   </g>
   <g id="line2d_55">
    <path d="M 19.341406 168.698495 
L 33.05751 136.77102 
L 40.656631 119.583951 
L 48.357542 102.826456 
L 54.610087 89.864831 
L 60.418849 78.449815 
L 65.555796 68.930265 
L 70.695139 60.006488 
L 75.101027 52.875019 
L 79.662874 46.031292 
L 83.95563 40.121894 
L 87.398559 35.771395 
L 90.909257 31.705081 
L 93.851638 28.592963 
L 97.008731 25.56133 
L 99.81928 23.135829 
L 102.601833 20.99262 
L 105.707772 18.908316 
L 108.397781 17.369095 
L 111.480041 15.912364 
L 113.842299 15.019689 
L 117.155684 14.097133 
L 119.816162 13.636266 
L 122.379915 13.428811 
L 125.171718 13.46745 
L 127.679711 13.737289 
L 130.382695 14.276811 
L 132.796146 14.975865 
L 135.840576 16.148612 
L 138.628212 17.505114 
L 141.544492 19.210754 
L 143.73357 20.681651 
L 147.053973 23.220706 
L 149.655033 25.465353 
L 152.360136 28.034014 
L 155.342353 31.137495 
L 158.866555 35.163894 
L 163.132322 40.54198 
L 166.793086 45.581874 
L 170.340644 50.82479 
L 174.02196 56.622587 
L 178.754696 64.582174 
L 184.097664 74.204366 
L 188.959886 83.496568 
L 194.410412 94.456151 
L 201.285034 108.986175 
L 207.645208 123.004791 
L 214.626908 138.873074 
L 227.319003 168.442653 
L 241.956343 202.486801 
L 248.24301 216.69883 
L 255.276218 232.080569 
L 261.548406 245.200787 
L 265.883644 253.875471 
L 269.955704 261.691992 
L 274.858839 270.634988 
L 279.17127 278.040647 
L 282.691181 283.74326 
L 286.475772 289.511879 
L 290.314645 294.960307 
L 294.583366 300.520179 
L 298.108459 304.699832 
L 301.053204 307.896608 
L 304.08695 310.902259 
L 307.065759 313.563301 
L 310.135648 315.999137 
L 312.942414 317.949464 
L 316.15664 319.853599 
L 319.199251 321.328246 
L 322.176892 322.459656 
L 324.575125 323.145106 
L 326.926856 323.620667 
L 328.972867 323.875572 
L 331.485737 323.986044 
L 333.758947 323.893455 
L 336.444055 323.548652 
L 338.401703 323.136839 
L 340.934338 322.40399 
L 343.75167 321.324816 
L 345.74449 320.394622 
L 348.857045 318.667417 
L 351.130972 317.196027 
L 354.021091 315.073607 
L 357.241803 312.380339 
L 360.094981 309.710473 
L 363.236587 306.468298 
L 366.244081 303.07411 
L 370.218207 298.165392 
L 373.76862 293.385397 
L 377.988504 287.239431 
L 380.972177 282.602102 
L 385.559933 275.024246 
L 390.540189 266.22212 
L 395.225564 257.437121 
L 400.459383 247.10109 
L 405.936431 235.761919 
L 412.810292 220.892036 
L 418.483298 208.189672 
L 426.210427 190.440644 
L 435.514853 168.698495 
L 435.514853 168.698495 
" clip-path="url(#pfe7ff1440c)" style="fill: none; stroke: #008000; stroke-linecap: square"/>
   </g>
   <g id="patch_3">
    <path d="M 227.42813 330.197536 
L 227.42813 7.2 
" style="fill: none; stroke: #000000; stroke-width: 0.8; stroke-linejoin: miter; stroke-linecap: square"/>
   </g>
   <g id="patch_4">
    <path d="M 11.017937 168.698495 
L 443.838322 168.698495 
" style="fill: none; stroke: #000000; stroke-width: 0.8; stroke-linejoin: miter; stroke-linecap: square"/>
   </g>
   <g id="text_11">
    <!-- $\frac{1}{2}\,f$ -->
    <g transform="translate(322.511491 99.75097) scale(0.16 -0.16)">
     <defs>
      <path id="Cmr10-31" d="M 594 0 
L 594 225 
Q 1394 225 1394 428 
L 1394 3788 
Q 1063 3628 556 3628 
L 556 3853 
Q 1341 3853 1741 4263 
L 1831 4263 
Q 1853 4263 1873 4245 
Q 1894 4228 1894 4206 
L 1894 428 
Q 1894 225 2694 225 
L 2694 0 
L 594 0 
z
" transform="scale(0.015625)"/>
      <path id="Cmr10-32" d="M 319 0 
L 319 172 
Q 319 188 331 206 
L 1325 1306 
Q 1550 1550 1690 1715 
Q 1831 1881 1968 2097 
Q 2106 2313 2186 2536 
Q 2266 2759 2266 3009 
Q 2266 3272 2169 3511 
Q 2072 3750 1880 3894 
Q 1688 4038 1416 4038 
Q 1138 4038 916 3870 
Q 694 3703 603 3438 
Q 628 3444 672 3444 
Q 816 3444 917 3347 
Q 1019 3250 1019 3097 
Q 1019 2950 917 2848 
Q 816 2747 672 2747 
Q 522 2747 420 2851 
Q 319 2956 319 3097 
Q 319 3338 409 3548 
Q 500 3759 670 3923 
Q 841 4088 1055 4175 
Q 1269 4263 1509 4263 
Q 1875 4263 2190 4108 
Q 2506 3953 2690 3670 
Q 2875 3388 2875 3009 
Q 2875 2731 2753 2481 
Q 2631 2231 2440 2026 
Q 2250 1822 1953 1562 
Q 1656 1303 1563 1216 
L 838 519 
L 1453 519 
Q 1906 519 2211 526 
Q 2516 534 2534 550 
Q 2609 631 2688 1141 
L 2875 1141 
L 2694 0 
L 319 0 
z
" transform="scale(0.015625)"/>
      <path id="Cmmi10-66" d="M 622 -1056 
Q 741 -1147 909 -1147 
Q 1138 -1147 1281 -641 
Q 1341 -397 1606 966 
L 1900 2534 
L 1350 2534 
Q 1288 2534 1288 2619 
Q 1313 2759 1369 2759 
L 1941 2759 
L 2016 3175 
Q 2053 3369 2084 3508 
Q 2116 3647 2152 3765 
Q 2188 3884 2259 4031 
Q 2369 4241 2555 4377 
Q 2741 4513 2956 4513 
Q 3097 4513 3230 4461 
Q 3363 4409 3447 4306 
Q 3531 4203 3531 4063 
Q 3531 3900 3423 3779 
Q 3316 3659 3163 3659 
Q 3059 3659 2986 3723 
Q 2913 3788 2913 3891 
Q 2913 4031 3008 4136 
Q 3103 4241 3244 4256 
Q 3125 4347 2950 4347 
Q 2853 4347 2767 4256 
Q 2681 4166 2656 4063 
Q 2616 3900 2478 3181 
L 2400 2759 
L 3059 2759 
Q 3122 2759 3122 2675 
Q 3119 2659 3109 2620 
Q 3100 2581 3083 2557 
Q 3066 2534 3041 2534 
L 2356 2534 
L 2059 972 
Q 2003 631 1929 279 
Q 1856 -72 1723 -442 
Q 1591 -813 1384 -1063 
Q 1178 -1313 897 -1313 
Q 681 -1313 511 -1189 
Q 341 -1066 341 -863 
Q 341 -700 445 -579 
Q 550 -459 709 -459 
Q 816 -459 887 -523 
Q 959 -588 959 -691 
Q 959 -828 857 -942 
Q 756 -1056 622 -1056 
z
" transform="scale(0.015625)"/>
     </defs>
     <use xlink:href="#Cmr10-31" transform="translate(0 38.373438) scale(0.7)"/>
     <use xlink:href="#Cmr10-32" transform="translate(0 -39.503125) scale(0.7)"/>
     <use xlink:href="#Cmmi10-66" transform="translate(62.132454 0.873437)"/>
     <path d="M 0 13.373437 
L 0 19.623437 
L 35 19.623437 
L 35 13.373437 
L 0 13.373437 
z
"/>
    </g>
   </g>
   <g id="text_12">
    <!-- $f$ -->
    <g transform="translate(327.551491 48.850952) scale(0.16 -0.16)">
     <use xlink:href="#Cmmi10-66" transform="translate(0 0.484375)"/>
    </g>
   </g>
   <g id="text_13">
    <!-- $-\frac{3}{2}\, f$ -->
    <g transform="translate(316.351491 306.881041) scale(0.16 -0.16)">
     <defs>
      <path id="Cmsy10-a1" d="M 653 1472 
Q 600 1472 565 1512 
Q 531 1553 531 1600 
Q 531 1647 565 1687 
Q 600 1728 653 1728 
L 4325 1728 
Q 4375 1728 4408 1687 
Q 4441 1647 4441 1600 
Q 4441 1553 4408 1512 
Q 4375 1472 4325 1472 
L 653 1472 
z
" transform="scale(0.015625)"/>
      <path id="Cmr10-33" d="M 609 494 
Q 759 275 1012 169 
Q 1266 63 1556 63 
Q 1928 63 2084 380 
Q 2241 697 2241 1100 
Q 2241 1281 2208 1462 
Q 2175 1644 2097 1800 
Q 2019 1956 1883 2050 
Q 1747 2144 1550 2144 
L 1125 2144 
Q 1069 2144 1069 2203 
L 1069 2259 
Q 1069 2309 1125 2309 
L 1478 2338 
Q 1703 2338 1851 2506 
Q 2000 2675 2069 2917 
Q 2138 3159 2138 3378 
Q 2138 3684 1994 3881 
Q 1850 4078 1556 4078 
Q 1313 4078 1091 3986 
Q 869 3894 738 3706 
Q 750 3709 759 3711 
Q 769 3713 781 3713 
Q 925 3713 1022 3613 
Q 1119 3513 1119 3372 
Q 1119 3234 1022 3134 
Q 925 3034 781 3034 
Q 641 3034 541 3134 
Q 441 3234 441 3372 
Q 441 3647 606 3850 
Q 772 4053 1033 4158 
Q 1294 4263 1556 4263 
Q 1750 4263 1965 4205 
Q 2181 4147 2356 4039 
Q 2531 3931 2642 3762 
Q 2753 3594 2753 3378 
Q 2753 3109 2633 2881 
Q 2513 2653 2303 2487 
Q 2094 2322 1844 2241 
Q 2122 2188 2372 2031 
Q 2622 1875 2773 1631 
Q 2925 1388 2925 1106 
Q 2925 753 2731 467 
Q 2538 181 2222 20 
Q 1906 -141 1556 -141 
Q 1256 -141 954 -26 
Q 653 88 461 316 
Q 269 544 269 863 
Q 269 1022 375 1128 
Q 481 1234 641 1234 
Q 744 1234 830 1186 
Q 916 1138 964 1050 
Q 1013 963 1013 863 
Q 1013 706 903 600 
Q 794 494 641 494 
L 609 494 
z
" transform="scale(0.015625)"/>
     </defs>
     <use xlink:href="#Cmsy10-a1" transform="translate(0 0.33125)"/>
     <use xlink:href="#Cmr10-33" transform="translate(77.685547 39.373438) scale(0.7)"/>
     <use xlink:href="#Cmr10-32" transform="translate(77.685547 -40.045312) scale(0.7)"/>
     <use xlink:href="#Cmmi10-66" transform="translate(139.818001 0.33125)"/>
     <path d="M 77.685547 12.83125 
L 77.685547 19.08125 
L 112.685547 19.08125 
L 112.685547 12.83125 
L 77.685547 12.83125 
z
"/>
    </g>
   </g>
  </g>
 </g>
 <defs>
  <clipPath id="pfe7ff1440c">
   <rect x="11.017937" y="7.2" width="432.820385" height="322.997536"/>
  </clipPath>
 </defs>
</svg>
