<svg xmlns="http://www.w3.org/2000/svg" xmlns:xlink="http://www.w3.org/1999/xlink" xmlns:inkscape="http://www.inkscape.org/namespaces/inkscape" version="1.1" width="183" height="46" viewBox="0 0 183 46">
<defs>
<path id="font_1_5" d="M.10998535 .34429933V.076034549C.10998535 .0309906 .09899902 .0309906 .03199768 .0309906V0C.066986087 .0009918213 .117996219 .0029907227 .14498902 .0029907227 .17098999 .0029907227 .22299195 .0009918213 .25698854 0V.0309906C.18998719 .0309906 .1789856 .0309906 .1789856 .076034549V.2602234C.1789856 .36431886 .25 .42037965 .31399537 .42037965 .3769989 .42037965 .3880005 .36631776 .3880005 .30926515V.076034549C.3880005 .0309906 .3769989 .0309906 .30999757 .0309906V0C.34498597 .0009918213 .3959961 .0029907227 .4229889 .0029907227 .44898988 .0029907227 .5009918 .0009918213 .5349884 0V.0309906C.48298646 .0309906 .45799256 .0309906 .45700074 .061019899V.25221253C.45700074 .3383026 .45700074 .36932374 .42599488 .405365 .4119873 .42237855 .3789978 .4423828 .32099916 .4423828 .24798584 .4423828 .20098877 .39935304 .17298889 .33729554V.4423828L.03199768 .43138124V.40037538C.101989749 .4003601 .10998535 .39335633 .10998535 .34429933Z"/>
<path id="font_1_7" d="M.3909912 .07926941V-.0107421879L.5349884 .00024414063V.03125C.46499635 .03125 .45700074 .038253786 .45700074 .087265018V.4423828L.30999757 .43138124V.40037538C.37998963 .40037538 .3880005 .39337159 .3880005 .34436036V.16630554C.3880005 .07926941 .33999635 .011245728 .2669983 .011245728 .18299866 .011245728 .1789856 .058258058 .1789856 .11027527V.4423828L.03199768 .43138124V.40037538C.10998535 .40037538 .10998535 .39736939 .10998535 .3083496V.15829468C.10998535 .08027649 .10998535-.0107421879 .2619934-.0107421879 .31799317-.0107421879 .3619995 .01725769 .3909912 .07926941Z"/>
<path id="font_1_3" d="M.1769867 .69433596 .032989503 .68333438V.6523285C.102996829 .6523285 .11099243 .6453247 .11099243 .5962982V.07601929C.11099243 .0309906 .099990848 .0309906 .032989503 .0309906V0C.06599426 .0009918213 .11898804 .0029907227 .14399719 .0029907227 .16899109 .0029907227 .21798706 .0009918213 .25498963 0V.0309906C.18798828 .0309906 .1769867 .0309906 .1769867 .07601929V.69433596Z"/>
<path id="font_2_3" d="M.4269867 .6066284C.43399049 .63461306 .43798829 .64060977 .44999696 .6436157 .45899964 .6456146 .49198915 .6456146 .5130005 .6456146 .6139984 .6456146 .6589966 .6416168 .6589966 .56365969 .6589966 .54867556 .6549988 .50968936 .651001 .4837036 .6499939 .4797058 .647995 .4677124 .647995 .46472169 .647995 .45872499 .651001 .45173646 .6599884 .45173646 .67099 .45173646 .6729889 .45973207 .6749878 .4747162L.70199587 .64860537C.7029877 .65260317 .70399478 .6626129 .70399478 .66560366 .70399478 .6766052 .69400027 .6766052 .6769867 .6766052H.12199402C.09799194 .6766052 .09700012 .6756134 .08999634 .6566162L.02999878 .4807129C.0289917 .478714 .023986817 .46472169 .023986817 .46272279 .023986817 .45672608 .0289917 .45173646 .035995485 .45173646 .04598999 .45173646 .04699707 .45672608 .052993776 .4727173 .10699463 .6276245 .1329956 .6456146 .2809906 .6456146H.31999208C.34799195 .6456146 .34799195 .6416168 .34799195 .6336212 .34799195 .6276245 .34498597 .6156311 .34399415 .6126251L.20999146 .07896423C.20098877 .041992189 .19799805 .0309906 .09098816 .0309906 .054992677 .0309906 .04899597 .0309906 .04899597 .011993408 .04899597 0 .05999756 0 .06599426 0 .09298706 0 .12098694 .0019989014 .147995 .0019989014 .17599488 .0019989014 .20498657 .0029907227 .23298645 .0029907227 .26098634 .0029907227 .2889862 .0019989014 .31599427 .0019989014 .34498597 .0019989014 .375 0 .40299989 0 .41299439 0 .4249878 0 .4249878 .019989014 .4249878 .0309906 .4169922 .0309906 .3909912 .0309906 .3659973 .0309906 .35299684 .0309906 .32699586 .032989503 .2979889 .035995485 .2899933 .038986207 .2899933 .054977418 .2899933 .05596924 .2899933 .06097412 .2939911 .07595825L.4269867 .6066284Z"/>
<path id="font_2_4" d="M.6279907 .5686035C.6769867 .64660647 .71899417 .6496124 .7559967 .6516113 .7679901 .65260317 .7689972 .6696167 .7689972 .6706085 .7689972 .6786041 .7639923 .6826172 .7559967 .6826172 .7299957 .6826172 .70098879 .6796112 .673996 .6796112 .6409912 .6796112 .6069946 .6826172 .57499697 .6826172 .56900027 .6826172 .55599978 .6826172 .55599978 .66360476 .55599978 .65260317 .5649872 .6516113 .57199099 .6516113 .598999 .6496124 .6179962 .63960269 .6179962 .61860659 .6179962 .6036072 .6029968 .581604 .6029968 .5805969L.29599 .092544559 .22799683 .62161257C.22799683 .63861086 .25099183 .6516113 .29699708 .6516113 .31098939 .6516113 .32199098 .6516113 .32199098 .6716156 .32199098 .680603 .31399537 .6826172 .30799867 .6826172 .2679901 .6826172 .22499085 .6796112 .18399048 .6796112 .1659851 .6796112 .14698792 .680603 .1289978 .680603 .11099243 .680603 .09199524 .6826172 .07499695 .6826172 .067993167 .6826172 .055999757 .6826172 .055999757 .66360476 .055999757 .6516113 .06498718 .6516113 .08099365 .6516113 .13699341 .6516113 .13798523 .64260867 .14099121 .6175995L.21998596 .0005340576C.22299195-.019470215 .22698975-.022460938 .23999024-.022460938 .2559967-.022460938 .2599945-.017471314 .2679901-.004470825L.6279907 .5686035Z"/>
<path id="font_2_5" d="M.9169922 .5666046C.94200137 .61061099 .96598818 .64660647 1.0289917 .6516113 1.0379944 .65260317 1.0479889 .65260317 1.0479889 .6716156 1.0479889 .6756134 1.0439911 .6826172 1.0359955 .6826172 1.0119934 .6826172 .98399356 .6796112 .95899966 .6796112 .9249878 .6796112 .8880005 .6826172 .8549957 .6826172 .848999 .6826172 .83599856 .6826172 .83599856 .66360476 .83599856 .65260317 .8450012 .6516113 .8509979 .6516113 .875 .65060427 .9099884 .64260867 .9099884 .61260989 .9099884 .6016083 .9049988 .5935974 .8969879 .5796051L.6269989 .108551029 .58999636 .604599C.58898928 .6246033 .58699038 .65060427 .6599884 .6516113 .6769867 .6516113 .68699648 .6516113 .68699648 .6716156 .68699648 .6816101 .6759949 .6826172 .6719971 .6826172 .6319885 .6826172 .58999636 .6796112 .5499878 .6796112 .5269928 .6796112 .46798707 .6826172 .44499208 .6826172 .43899537 .6826172 .42599488 .6826172 .42599488 .6626129 .42599488 .6516113 .43598939 .6516113 .44999696 .6516113 .49398805 .6516113 .5009918 .6456146 .5029907 .6266022L.5089874 .54959109 .2559967 .108551029 .21798706 .6156006C.21798706 .62760928 .21798706 .65060427 .2939911 .6516113 .3039856 .6516113 .31498719 .6516113 .31498719 .6716156 .31498719 .6826172 .30299378 .6826172 .30099488 .6826172 .26098634 .6826172 .21899414 .6796112 .17799378 .6796112 .14299011 .6796112 .10699463 .6826172 .07299805 .6826172 .067993167 .6826172 .054992677 .6826172 .054992677 .66360476 .054992677 .6516113 .06399536 .6516113 .07998657 .6516113 .12998963 .6516113 .1309967 .64260867 .1329956 .61460879L.17799378 .0035247803C.1789856-.014465332 .17999268-.022460938 .19400025-.022460938 .20599365-.022460938 .20899964-.016464234 .21798706-.0014648438L.5119934 .5085907 .548996 .0035247803C.5509949-.017471314 .5529938-.022460938 .5649872-.022460938 .5779877-.022460938 .58399966-.012466431 .58898928-.0034637452L.9169922 .5666046Z"/>
<path id="font_1_2" d="M.1769867 .4423828 .036987306 .43138124V.40037538C.101989749 .40037538 .11099243 .3943634 .11099243 .34532167V.076034549C.11099243 .0309906 .099990848 .0309906 .032989503 .0309906V0C.06498718 .0009918213 .11898804 .0029907227 .14299011 .0029907227 .17799378 .0029907227 .21299744 .0009918213 .24699402 0V.0309906C.18099976 .0309906 .1769867 .035995485 .1769867 .075042728V.4423828M.18099976 .6159363C.18099976 .64793398 .1559906 .6689453 .12799073 .6689453 .09700012 .6689453 .07499695 .64193728 .07499695 .6159363 .07499695 .5889435 .09700012 .5629425 .12799073 .5629425 .1559906 .5629425 .18099976 .5839386 .18099976 .6159363Z"/>
<path id="font_1_4" d="M.10998535 .34429933V.076034549C.10998535 .0309906 .09899902 .0309906 .03199768 .0309906V0C.066986087 .0009918213 .117996219 .0029907227 .14498902 .0029907227 .17098999 .0029907227 .22299195 .0009918213 .25698854 0V.0309906C.18998719 .0309906 .1789856 .0309906 .1789856 .076034549V.2602234C.1789856 .36431886 .25 .42037965 .31399537 .42037965 .3769989 .42037965 .3880005 .36631776 .3880005 .30926515V.076034549C.3880005 .0309906 .3769989 .0309906 .30999757 .0309906V0C.34498597 .0009918213 .3959961 .0029907227 .4229889 .0029907227 .44898988 .0029907227 .5009918 .0009918213 .5349884 0V.0309906C.46798707 .0309906 .45700074 .0309906 .45700074 .076034549V.2602234C.45700074 .36431886 .5279999 .42037965 .59199526 .42037965 .6549988 .42037965 .66600039 .36631776 .66600039 .30926515V.076034549C.66600039 .0309906 .6549988 .0309906 .58799746 .0309906V0C.6230011 .0009918213 .673996 .0029907227 .70098879 .0029907227 .72698977 .0029907227 .7789917 .0009918213 .8129883 0V.0309906C.7609863 .0309906 .73599246 .0309906 .7350006 .061019899V.25221253C.7350006 .3383026 .7350006 .36932374 .70399478 .405365 .6899872 .42237855 .6569977 .4423828 .598999 .4423828 .5149994 .4423828 .47099305 .38233949 .45399476 .34429933 .43998719 .43138124 .3659973 .4423828 .32099916 .4423828 .24798584 .4423828 .20098877 .39935304 .17298889 .33729554V.4423828L.03199768 .43138124V.40037538C.101989749 .4003601 .10998535 .39335633 .10998535 .34429933Z"/>
<path id="font_2_1" d="M.1789856 .114868167C.13899231 .047973634 .099990848 .033981325 .055999757 .0309906 .04399109 .02999878 .034988405 .02999878 .034988405 .010986328 .034988405 .004989624 .039993287 0 .04798889 0 .07499695 0 .10598755 .0029907227 .13398743 .0029907227 .16699219 .0029907227 .20199585 0 .23399353 0 .23999024 0 .25299073 0 .25299073 .018997193 .25299073 .02999878 .24398804 .0309906 .23699951 .0309906 .21398926 .032989503 .18998719 .04096985 .18998719 .06593323 .18998719 .077926639 .19599915 .088897708 .20399475 .102890018L.27999879 .23068238H.5309906C.5329895 .2097168 .5469971 .07392883 .5469971 .063949588 .5469971 .033981325 .49499513 .0309906 .47499085 .0309906 .46099855 .0309906 .45098878 .0309906 .45098878 .010986328 .45098878 0 .46299745 0 .46499635 0 .5059967 0 .548996 .0029907227 .58999636 .0029907227 .61499026 .0029907227 .6779938 0 .7029877 0 .70899966 0 .72099307 0 .72099307 .019989014 .72099307 .0309906 .71099856 .0309906 .69799807 .0309906 .6359863 .0309906 .6359863 .037979127 .6329956 .06694031L.57199099 .691803C.56999209 .71180728 .56999209 .7158203 .5529938 .7158203 .5369873 .7158203 .5329895 .7088165 .5269928 .69880679L.1789856 .114868167M.29899598 .26168824 .49598695 .5917816 .5279999 .26168824H.29899598Z"/>
<path id="font_2_2" d="M.30299378 .3244629H.3999939C.47499085 .3244629 .48298646 .30848695 .48298646 .27954103 .48298646 .2725525 .48298646 .26057435 .47599793 .2306366 .47399903 .22564698 .47299195 .22164917 .47299195 .21965027 .47299195 .21166992 .47898866 .20767212 .4850006 .20767212 .49499513 .20767212 .49499513 .21066284 .5 .2286377L.5549927 .44551087C.55799868 .45651246 .55799868 .45851136 .55799868 .46151734 .55799868 .46351625 .55599978 .47251893 .54599 .47251893 .5359955 .47251893 .5349884 .46751405 .5309906 .45150758 .5099945 .37347413 .4869995 .35546876 .4019928 .35546876H.31098939L.375 .6095886C.38398744 .64460757 .3849945 .64860537 .42900086 .64860537H.5609894C.6839905 .64860537 .70700076 .6156006 .70700076 .53855898 .70700076 .5155487 .70700076 .51153567 .70399478 .4845276 .70199587 .4715271 .70199587 .46951295 .70199587 .46652223 .70199587 .46151734 .7049866 .45451356 .71398928 .45451356 .72499087 .45451356 .7259979 .46051026 .7279968 .4795227L.7480011 .65260317C.7509918 .6796112 .74598696 .6796112 .72099307 .6796112H.23098755C.21099854 .6796112 .20098877 .6796112 .20098877 .65960696 .20098877 .64860537 .20999146 .64860537 .22898865 .64860537 .2659912 .64860537 .2939911 .64860537 .2939911 .6306 .2939911 .6266022 .2939911 .6246033 .2889862 .60658267L.15699768 .07791138C.14698792 .038970949 .14498902 .0309906 .06599426 .0309906 .04899597 .0309906 .037994386 .0309906 .037994386 .011993408 .037994386 0 .049987794 0 .052993776 0 .08198547 0 .1559906 .0029907227 .18499756 .0029907227 .21798706 .0029907227 .30099488 0 .33399964 0 .34298707 0 .35499574 0 .35499574 .018997193 .35499574 .026992798 .34899903 .0289917 .34899903 .02999878 .34599305 .0309906 .34399415 .0309906 .32099916 .0309906 .29899598 .0309906 .2939911 .0309906 .2689972 .032989503 .23999024 .035980226 .23699951 .039978029 .23699951 .052947999 .23699951 .0549469 .23699951 .060943605 .24099732 .075912479L.30299378 .3244629Z"/>
<path id="font_3_3" d="M.12199402 .06324768C.117996219 .050247194 .11199951 .025222779 .11199951 .022232056 .11199951 .00022888184 .12998963-.009765625 .1459961-.009765625 .1639862-.009765625 .17999268 .0032196046 .18499756 .01222229 .18998719 .021224976 .19799805 .053237916 .20298767 .07424927 .20799256 .09326172 .21899414 .13928223 .22499085 .16429138 .23098755 .18629456 .23699951 .20831299 .24198914 .23132324 .25299073 .27233888 .25498963 .28033448 .28399659 .32136537 .31199647 .3613739 .35899354 .4133911 .43399049 .4133911 .49198915 .4133911 .49299623 .36238099 .49299623 .34336854 .49299623 .28334046 .44999696 .17228699 .43399049 .13027954 .4229889 .102264408 .4189911 .09326172 .4189911 .07624817 .4189911 .023223877 .46299745-.009765625 .5139923-.009765625 .6139984-.009765625 .6579895 .12828064 .6579895 .14328003 .6579895 .15628052 .644989 .15628052 .6419983 .15628052 .6279907 .15628052 .6269989 .15028382 .6230011 .13928223 .59999087 .059249879 .5569916 .018234253 .5169983 .018234253 .49598695 .018234253 .49198915 .032226564 .49198915 .053237916 .49198915 .07624817 .49699403 .089263919 .5149994 .13427735 .5269928 .1652832 .56799319 .2713318 .56799319 .32736207 .56799319 .4243927 .4909973 .44140626 .43798829 .44140626 .35499574 .44140626 .29899598 .39038087 .2689972 .3503723 .2619934 .41940309 .20298767 .44140626 .1619873 .44140626 .11898804 .44140626 .09599304 .4104004 .08299255 .38739015 .06098938 .3503723 .04699707 .29335023 .04699707 .28834535 .04699707 .27534486 .06098938 .27534486 .06399536 .27534486 .07798767 .27534486 .07899475 .27833558 .085998538 .3053589 .100997928 .36437989 .11999512 .4133911 .15899658 .4133911 .18499756 .4133911 .19198609 .39138795 .19198609 .36437989 .19198609 .34536744 .18299866 .3083496 .17599488 .28134156 .16899109 .2543335 .15899658 .21331787 .1539917 .19129944L.12199402 .06324768Z"/>
<path id="font_3_2" d="M.43399049 .08125305C.42900086 .06124878 .41999818 .027236939 .41999818 .022232056 .41999818 .00022888184 .43798829-.009765625 .45399476-.009765625 .47200013-.009765625 .48799134 .0032196046 .49299623 .01222229 .49798585 .021224976 .5059967 .053237916 .5109863 .07424927 .5159912 .09326172 .5269928 .13928223 .5329895 .16429138 .5389862 .18629456 .54499819 .20831299 .5499878 .23132324 .5609894 .27433778 .5609894 .27633668 .58099368 .3073578 .61299136 .35636903 .6629944 .4133911 .7409973 .4133911 .7969971 .4133911 .7999878 .36738587 .7999878 .34336854 .7999878 .28334046 .7569885 .17228699 .7409973 .13027954 .7299957 .102264408 .7259979 .09326172 .7259979 .07624817 .7259979 .023223877 .769989-.009765625 .82099917-.009765625 .92099-.009765625 .96499636 .12828064 .96499636 .14328003 .96499636 .15628052 .95199587 .15628052 .94898989 .15628052 .93499758 .15628052 .9339905 .15028382 .9299927 .13928223 .9069977 .059249879 .8639984 .018234253 .82398989 .018234253 .8029938 .018234253 .798996 .032226564 .798996 .053237916 .798996 .07624817 .80400088 .089263919 .82199099 .13427735 .83399966 .1652832 .875 .2713318 .875 .32736207 .875 .34336854 .875 .38539125 .83799746 .4143982 .82099917 .42739869 .7919922 .44140626 .7449951 .44140626 .6549988 .44140626 .59999087 .38238526 .56799319 .34036256 .55999758 .42539979 .4889984 .44140626 .43798829 .44140626 .35499574 .44140626 .29899598 .39038087 .2689972 .3503723 .2619934 .41940309 .20298767 .44140626 .1619873 .44140626 .11898804 .44140626 .09599304 .4104004 .08299255 .38739015 .06098938 .3503723 .04699707 .29335023 .04699707 .28834535 .04699707 .27534486 .06098938 .27534486 .06399536 .27534486 .07798767 .27534486 .07899475 .27833558 .085998538 .3053589 .100997928 .36437989 .11999512 .4133911 .15899658 .4133911 .18499756 .4133911 .19198609 .39138795 .19198609 .36437989 .19198609 .34536744 .18299866 .3083496 .17599488 .28134156 .16899109 .2543335 .15899658 .21331787 .1539917 .19129944L.12199402 .06324768C.117996219 .050247194 .11199951 .025222779 .11199951 .022232056 .11199951 .00022888184 .12998963-.009765625 .1459961-.009765625 .1639862-.009765625 .17999268 .0032196046 .18499756 .01222229 .18998719 .021224976 .19799805 .053237916 .20298767 .07424927 .20799256 .09326172 .21899414 .13928223 .22499085 .16429138 .23098755 .18629456 .23699951 .20831299 .24198914 .23132324 .25299073 .27233888 .25498963 .28033448 .28399659 .32136537 .31199647 .3613739 .35899354 .4133911 .43399049 .4133911 .49198915 .4133911 .49299623 .36238099 .49299623 .34336854 .49299623 .31835938 .48999024 .3053589 .47599793 .24932862L.43399049 .08125305Z"/>
<path id="font_1_1" d="M.116989139 .21801758C.116989139 .38093568 .19898987 .42323304 .2519989 .42323304 .26098634 .42323304 .32398988 .42222596 .35899354 .38594056 .31799317 .38293458 .31199647 .3529358 .31199647 .3399353 .31199647 .31393434 .32998658 .2939453 .35798646 .2939453 .38398744 .2939453 .4039917 .3109436 .4039917 .34094239 .4039917 .40911866 .32798768 .4482422 .25099183 .4482422 .12599182 .4482422 .033996583 .3399353 .033996583 .21601868 .033996583 .08816528 .1329956-.0107421879 .24899292-.0107421879 .3829956-.0107421879 .4149933 .10914612 .4149933 .119140628 .4149933 .12911988 .40499879 .12911988 .4019928 .12911988 .3929901 .12911988 .3909912 .12512207 .3889923 .119140628 .3600006 .026229859 .29499818 .014251709 .2579956 .014251709 .20498657 .014251709 .116989139 .0572052 .116989139 .21801758Z"/>
<path id="font_1_6" d="M.47099305 .21424866C.47099305 .34223939 .37098695 .4482422 .25 .4482422 .125 .4482422 .027999878 .3392334 .027999878 .21424866 .027999878 .085250858 .13198853-.0107421879 .24899292-.0107421879 .36999513-.0107421879 .47099305 .087249759 .47099305 .21424866M.25 .014251709C.20698548 .014251709 .16299439 .035247804 .13598633 .08125305 .11099243 .12524414 .11099243 .18624878 .11099243 .22224427 .11099243 .26124574 .11099243 .31523133 .1349945 .35923768 .1619873 .40522767 .20899964 .426239 .24899292 .426239 .29299928 .426239 .33599855 .40423585 .3619995 .36123658 .3880005 .3182373 .3880005 .26023866 .3880005 .22224427 .3880005 .18624878 .3880005 .13224793 .3659973 .08824158 .34399415 .04324341 .2999878 .014251709 .25 .014251709Z"/>
<path id="font_4_1" d="M.2899933-.25V-.20100403H.18499756V.70098879H.2899933V.75H.13598633V-.25H.2899933Z"/>
<path id="font_4_2" d="M.18598938 .75H.03199768V.70098879H.13699341V-.20100403H.03199768V-.25H.18598938V.75Z"/>
<path id="font_5_2" d="M.24798584 .082977298C.23999024 .052993776 .23899842 .04499817 .16299439 .04499817 .13699341 .04499817 .12098694 .04499817 .12098694 .016998291 .12098694 0 .13699341 0 .1539917 0H.58898928C.7689972 0 .9149933 .111968997 .9149933 .21191406 .9149933 .27389527 .8569946 .3408661 .72099307 .35786439 .81999209 .37086488 .96099856 .4367981 .96099856 .53671267 .96099856 .6206207 .8619995 .6826172 .7259979 .6826172H.31599427C.29699708 .6826172 .2809906 .6826172 .2809906 .65460208 .2809906 .63760378 .2939911 .63760378 .31799317 .63760378 .32798768 .63760378 .36099244 .63760378 .38198854 .6316223 .38198854 .6196289 .38198854 .61763 .3789978 .6066437L.24798584 .082977298M.4169922 .3718567 .47499085 .6046448C.48298646 .63560488 .48298646 .63760378 .5249939 .63760378H.70799258C.8069916 .63760378 .85398867 .58665469 .85398867 .53370669 .85398867 .4527893 .74598696 .3718567 .60598757 .3718567H.4169922M.36898805 .04499817C.36099244 .04499817 .34700013 .04499817 .33699037 .04699707 .33799745 .054992677 .33799745 .056991579 .33999635 .06498718L.4079895 .3378601H.6519928C.7539978 .3378601 .8049927 .2788849 .8049927 .21591187 .8049927 .11895752 .6859894 .04499817 .56199648 .04499817H.36898805Z"/>
<path id="font_3_1" d="M.48599244 .6046295C.49299623 .63360598 .49499513 .63661196 .5169983 .63861086 .5219879 .63960269 .5569916 .63960269 .57699587 .63960269 .6380005 .63960269 .6639862 .63960269 .68899539 .63160708 .73399356 .61761477 .73599246 .5886383 .73599246 .5526581 .73599246 .53666689 .73599246 .52368167 .72898867 .4717102L.72698977 .46072389C.72698977 .45072938 .73399356 .4457245 .74398806 .4457245 .7589874 .4457245 .7609863 .45472718 .7630005 .47071839L.7899933 .66160586C.7899933 .6756134 .7779999 .6756134 .7599945 .6756134H.14498902C.11999512 .6756134 .117996219 .6756134 .11099243 .65460208L.04798889 .4777069C.04699707 .4737091 .042999269 .46472169 .042999269 .4597168 .042999269 .455719 .04499817 .4457245 .05999756 .4457245 .07299805 .4457245 .07499695 .45072938 .08099365 .4697113 .13899231 .62960818 .17199707 .63960269 .32398988 .63960269H.3659973C.3959961 .63960269 .39698792 .63861086 .39698792 .62960818 .39698792 .62861636 .39698792 .62361147 .3929901 .6086273L.26098634 .082962039C.2519989 .04598999 .24899292 .035995485 .14399719 .035995485 .10798645 .035995485 .09899902 .035995485 .09899902 .01399231 .09899902 .010986328 .100997928 0 .115997318 0 .14399719 0 .17399597 .0029907227 .20199585 .0029907227 .22999573 .0029907227 .2599945 .0039978029 .28799439 .0039978029 .31599427 .0039978029 .34999085 .0039978029 .37799073 .0029907227 .40499879 .0019989014 .43499757 0 .46199037 0 .46998597 0 .4850006 0 .4850006 .021987915 .4850006 .035995485 .47499085 .035995485 .44400025 .035995485 .4249878 .035995485 .40499879 .036987306 .38598634 .037994386 .35198976 .040985109 .34999085 .04498291 .34999085 .05697632 .34999085 .0639801 .34999085 .065979007 .35398866 .07997131L.48599244 .6046295Z"/>
<path id="font_6_1" d="M.3600006 .46505738C.36099244 .46606446 .36999513 .48506166 .36999513 .50006106 .36999513 .5360565 .33799745 .5590515 .30799867 .5590515 .2669983 .5590515 .2559967 .5280609 .25099183 .5130615L.09700012 .080078128C.09298706 .06808472 .09298706 .065078739 .09298706 .064071658 .09298706 .048080446 .1349945 .038085939 .13598633 .038085939 .14498902 .038085939 .14698792 .04307556 .15299988 .05508423L.3600006 .46505738Z"/>
<path id="font_5_1" d="M.72698977 .68881228C.72299197 .70980837 .71899417 .7158203 .69699099 .7158203 .6729889 .7158203 .6669922 .70780947 .6569977 .69281008L.2649994 .124816898C.22299195 .063949588 .18798828 .04798889 .12298584 .04498291 .10398865 .04399109 .10398865 .017990113 .10398865 .016998291 .10398865 .0029907227 .115997318 0 .11999512 0 .13398743 0 .15098572 .0029907227 .16499329 .0029907227 .18199158 .0029907227 .19898987 .0039978029 .21598816 .0039978029 .23498535 .0039978029 .25299073 .0029907227 .2709961 .0029907227 .2889862 .0029907227 .30999757 0 .32798768 0 .33499146 0 .35198976 0 .35198976 .027999878 .35198976 .04399109 .33699037 .04498291 .33299256 .04498291 .32499696 .04498291 .28599549 .04698181 .28599549 .07093811 .28599549 .082901 .2979889 .099868778 .30499269 .10984802L.37799073 .21661377C.3829956 .22261048 .38398744 .2236023 .40299989 .2236023H.70599368C.70799258 .21162415 .70899966 .20663452 .71199038 .19467163 .71499636 .17671204 .7350006 .076919559 .7350006 .06694031 .7350006 .04498291 .6719971 .04498291 .6669922 .04498291 .6519928 .04498291 .6359863 .04498291 .6359863 .016998291 .6359863 .0069885256 .6429901 0 .6539917 0 .6749878 0 .69898989 .0029907227 .72099307 .0029907227 .7449951 .0029907227 .7679901 .0039978029 .7919922 .0039978029 .8129883 .0039978029 .83499148 .0029907227 .85598757 .0029907227 .8759918 .0029907227 .8989868 0 .9189911 0 .9359894 0 .94299319 .011993408 .94299319 .027999878 .94299319 .04498291 .9269867 .04498291 .9129944 .04498291 .8470001 .04498291 .84599307 .051971437 .84199526 .07392883L.72698977 .68881228M.6369934 .5927582 .69799807 .26860047H.4139862L.6369934 .5927582Z"/>
</defs>
<use data-text="n" xlink:href="#font_1_5" transform="matrix(9.963197,0,0,-9.963197,1.3232422,11.349842)"/>
<use data-text="u" xlink:href="#font_1_7" transform="matrix(9.963197,0,0,-9.963197,6.5838015,11.349842)"/>
<use data-text="l" xlink:href="#font_1_3" transform="matrix(9.963197,0,0,-9.963197,12.113373,11.349842)"/>
<use data-text="l" xlink:href="#font_1_3" transform="matrix(9.963197,0,0,-9.963197,14.873169,11.349842)"/>
<use data-text="T" xlink:href="#font_2_3" transform="matrix(9.963197,0,0,-9.963197,19.312333,11.349842)"/>
<use data-text="V" xlink:href="#font_2_4" transform="matrix(9.963197,0,0,-9.963197,61.744859,11.349842)"/>
<use data-text="W" xlink:href="#font_2_5" transform="matrix(9.963197,0,0,-9.963197,107.148578,11.349842)"/>
<use data-text="i" xlink:href="#font_1_2" transform="matrix(9.963197,0,0,-9.963197,153.41135,11.349842)"/>
<use data-text="m" xlink:href="#font_1_4" transform="matrix(9.963197,0,0,-9.963197,156.17118,11.349842)"/>
<use data-text="T" xlink:href="#font_2_3" transform="matrix(9.963197,0,0,-9.963197,166.14212,11.349842)"/>
<use data-text="n" xlink:href="#font_1_5" transform="matrix(9.963197,0,0,-9.963197,1.1902313,43.50277)"/>
<use data-text="u" xlink:href="#font_1_7" transform="matrix(9.963197,0,0,-9.963197,6.4507906,43.50277)"/>
<use data-text="l" xlink:href="#font_1_3" transform="matrix(9.963197,0,0,-9.963197,11.980362,43.50277)"/>
<use data-text="l" xlink:href="#font_1_3" transform="matrix(9.963197,0,0,-9.963197,14.740158,43.50277)"/>
<use data-text="A" xlink:href="#font_2_1" transform="matrix(9.963197,0,0,-9.963197,19.179322,43.50277)"/>
<use data-text="F" xlink:href="#font_2_2" transform="matrix(9.963197,0,0,-9.963197,59.15071,43.50277)"/>
<use data-text="n" xlink:href="#font_3_3" transform="matrix(6.9742186,0,0,-6.9742186,66.94217,39.887556)"/>
<use data-text="F" xlink:href="#font_2_2" transform="matrix(9.963197,0,0,-9.963197,104.86543,43.50277)"/>
<use data-text="m" xlink:href="#font_3_2" transform="matrix(6.9742186,0,0,-6.9742186,112.65593,39.887556)"/>
<use data-text="c" xlink:href="#font_1_1" transform="matrix(9.963197,0,0,-9.963197,152.7243,43.50277)"/>
<use data-text="o" xlink:href="#font_1_6" transform="matrix(9.963197,0,0,-9.963197,157.14798,43.50277)"/>
<use data-text="l" xlink:href="#font_1_3" transform="matrix(9.963197,0,0,-9.963197,162.12958,43.50277)"/>
<use data-text="A" xlink:href="#font_2_1" transform="matrix(9.963197,0,0,-9.963197,166.56214,43.50277)"/>
<path transform="matrix(1.00006,0,0,-1.00006,87.61341,23.966599)" stroke-width=".39848" stroke-linecap="butt" stroke-miterlimit="10" stroke-linejoin="miter" fill="none" stroke="#000000" d="M-55.16335 15.10707H-30.75719"/>
<path transform="matrix(-1.00006,-0,0,-1.00006,32.446756,8.858623)" stroke-width=".39848" stroke-linecap="round" stroke-miterlimit="10" stroke-linejoin="miter" fill="none" stroke="#000000" d="M0 1.95256C.68224 1.95256 1.2353 1.51546 1.2353 .97627 1.2353 .43709 .68224 0 0 0"/>
<path transform="matrix(1.00006,0,0,-1.00006,57.05364,8.858623)" stroke-width=".39848" stroke-linecap="round" stroke-linejoin="round" fill="none" stroke="#000000" d="M-2.07213 2.39091C-1.69356 .95633-.84995 .27893 0 0-.84995-.27893-1.69356-.95633-2.07213-2.39091"/>
<path transform="matrix(1.00006,0,0,-1.00006,87.61341,23.966599)" stroke-width=".39848" stroke-linecap="butt" stroke-miterlimit="10" stroke-linejoin="miter" fill="none" stroke="#000000" d="M-73.68813 8.36877V-8.36877"/>
<path transform="matrix(0,-1.00006,-1.00006,-0,13.92086,15.398074)" stroke-width=".39848" stroke-linecap="round" stroke-linejoin="round" fill="none" stroke="#000000" d="M-2.07213 2.39091C-1.69356 .95633-.84995 .27893 0 0-.84995-.27893-1.69356-.95633-2.07213-2.39091"/>
<path transform="matrix(0,1.00006,1.00006,0,13.92086,32.535123)" stroke-width=".39848" stroke-linecap="round" stroke-linejoin="round" fill="none" stroke="#000000" d="M-2.07213 2.39091C-1.69356 .95633-.84995 .27893 0 0-.84995-.27893-1.69356-.95633-2.07213-2.39091"/>
<use data-text="[" xlink:href="#font_4_1" transform="matrix(6.9742186,0,0,-6.9742186,16.26712,25.709704)"/>
<use data-text="]" xlink:href="#font_4_2" transform="matrix(6.9742186,0,0,-6.9742186,22.753144,25.709704)"/>
<use data-text="B" xlink:href="#font_5_2" transform="matrix(4.9815986,0,0,-4.9815986,25.013657,26.711764)"/>
<path transform="matrix(1.00006,0,0,-1.00006,87.61341,23.966599)" stroke-width=".39848" stroke-linecap="butt" stroke-miterlimit="10" stroke-linejoin="miter" fill="none" stroke="#000000" d="M-13.34676 15.10707H14.64334"/>
<path transform="matrix(1.00006,0,0,-1.00006,102.45688,8.858623)" stroke-width=".39848" stroke-linecap="round" stroke-linejoin="round" fill="none" stroke="#000000" d="M-2.07213 2.39091C-1.69356 .95633-.84995 .27893 0 0-.84995-.27893-1.69356-.95633-2.07213-2.39091"/>
<use data-text="T" xlink:href="#font_3_1" transform="matrix(6.9742186,0,0,-6.9742186,85.57129,6.5125524)"/>
<path transform="matrix(1.00006,0,0,-1.00006,87.61341,23.966599)" stroke-width=".39848" stroke-linecap="butt" stroke-miterlimit="10" stroke-linejoin="miter" fill="none" stroke="#000000" d="M-21.85274 8.36877V-8.47948"/>
<path transform="matrix(0,-1.00006,-1.00006,-0,65.75936,15.398074)" stroke-width=".39848" stroke-linecap="round" stroke-linejoin="round" fill="none" stroke="#000000" d="M-2.07213 2.39091C-1.69356 .95633-.84995 .27893 0 0-.84995-.27893-1.69356-.95633-2.07213-2.39091"/>
<path transform="matrix(0,1.00006,1.00006,0,65.75936,32.64583)" stroke-width=".39848" stroke-linecap="round" stroke-linejoin="round" fill="none" stroke="#000000" d="M-2.07213 2.39091C-1.69356 .95633-.84995 .27893 0 0-.84995-.27893-1.69356-.95633-2.07213-2.39091"/>
<use data-text="[" xlink:href="#font_4_1" transform="matrix(6.9742186,0,0,-6.9742186,68.10524,25.765706)"/>
<use data-text="]" xlink:href="#font_4_2" transform="matrix(6.9742186,0,0,-6.9742186,74.59126,25.765706)"/>
<use data-text="B" xlink:href="#font_5_2" transform="matrix(4.9815986,0,0,-4.9815986,76.851779,26.767765)"/>
<path transform="matrix(1.00006,0,0,-1.00006,87.61341,23.966599)" stroke-width=".39848" stroke-linecap="butt" stroke-miterlimit="10" stroke-linejoin="miter" fill="none" stroke="#000000" d="M35.21971 15.10707H59.86801"/>
<path transform="matrix(-1.00006,-0,0,1.00006,122.63599,8.858623)" stroke-width=".39848" stroke-linecap="round" stroke-linejoin="round" fill="none" stroke="#000000" d="M-2.07213 2.39091C-1.69356 .95633-.84995 .27893 0 0-.84995-.27893-1.69356-.95633-2.07213-2.39091"/>
<path transform="matrix(1.00006,0,0,-1.00006,147.48502,8.858623)" stroke-width=".39848" stroke-linecap="round" stroke-miterlimit="10" stroke-linejoin="miter" fill="none" stroke="#000000" d="M0 1.95256C.68224 1.95256 1.2353 1.51546 1.2353 .97627 1.2353 .43709 .68224 0 0 0"/>
<path transform="matrix(1.00006,0,0,-1.00006,87.61341,23.966599)" stroke-width=".39848" stroke-linecap="butt" stroke-miterlimit="10" stroke-linejoin="miter" fill="none" stroke="#000000" d="M24.93152 8.36877V-8.47948"/>
<path transform="matrix(0,-1.00006,-1.00006,-0,112.546428,15.398074)" stroke-width=".39848" stroke-linecap="round" stroke-linejoin="round" fill="none" stroke="#000000" d="M-2.07213 2.39091C-1.69356 .95633-.84995 .27893 0 0-.84995-.27893-1.69356-.95633-2.07213-2.39091"/>
<path transform="matrix(0,1.00006,1.00006,0,112.546428,32.64583)" stroke-width=".39848" stroke-linecap="round" stroke-linejoin="round" fill="none" stroke="#000000" d="M-2.07213 2.39091C-1.69356 .95633-.84995 .27893 0 0-.84995-.27893-1.69356-.95633-2.07213-2.39091"/>
<use data-text="[" xlink:href="#font_4_1" transform="matrix(6.9742186,0,0,-6.9742186,114.89305,25.721703)"/>
<use data-text="]" xlink:href="#font_4_2" transform="matrix(6.9742186,0,0,-6.9742186,121.379077,25.721703)"/>
<use data-text="B" xlink:href="#font_5_2" transform="matrix(4.9815986,0,0,-4.9815986,123.63959,27.553814)"/>
<use data-text="&#x2032;" xlink:href="#font_6_1" transform="matrix(4.9815986,0,0,-4.9815986,129.0379,26.086726)"/>
<path transform="matrix(1.00006,0,0,-1.00006,87.61341,23.966599)" stroke-width=".39848" stroke-linecap="butt" stroke-miterlimit="10" stroke-linejoin="miter" fill="none" stroke="#000000" d="M75.76372 8.36877V-8.36877"/>
<path transform="matrix(0,-1.00006,-1.00006,-0,163.38167,15.398074)" stroke-width=".39848" stroke-linecap="round" stroke-linejoin="round" fill="none" stroke="#000000" d="M-2.07213 2.39091C-1.69356 .95633-.84995 .27893 0 0-.84995-.27893-1.69356-.95633-2.07213-2.39091"/>
<path transform="matrix(0,1.00006,1.00006,0,163.38167,32.535123)" stroke-width=".39848" stroke-linecap="round" stroke-linejoin="round" fill="none" stroke="#000000" d="M-2.07213 2.39091C-1.69356 .95633-.84995 .27893 0 0-.84995-.27893-1.69356-.95633-2.07213-2.39091"/>
<use data-text="[" xlink:href="#font_4_1" transform="matrix(6.9742186,0,0,-6.9742186,165.72809,25.6657)"/>
<use data-text="]" xlink:href="#font_4_2" transform="matrix(6.9742186,0,0,-6.9742186,172.21411,25.6657)"/>
<use data-text="B" xlink:href="#font_5_2" transform="matrix(4.9815986,0,0,-4.9815986,174.47464,27.49781)"/>
<use data-text="&#x2032;" xlink:href="#font_6_1" transform="matrix(4.9815986,0,0,-4.9815986,179.87296,26.030724)"/>
<path transform="matrix(1.00006,0,0,-1.00006,87.61341,23.966599)" stroke-width=".39848" stroke-linecap="butt" stroke-miterlimit="10" stroke-linejoin="miter" fill="none" stroke="#000000" d="M-55.03017-17.04425H-33.3511"/>
<path transform="matrix(-1.00006,-0,0,-1.00006,32.57994,41.01187)" stroke-width=".39848" stroke-linecap="round" stroke-miterlimit="10" stroke-linejoin="miter" fill="none" stroke="#000000" d="M0 1.95256C.68224 1.95256 1.2353 1.51546 1.2353 .97627 1.2353 .43709 .68224 0 0 0"/>
<path transform="matrix(1.00006,0,0,-1.00006,54.459554,41.01187)" stroke-width=".39848" stroke-linecap="round" stroke-linejoin="round" fill="none" stroke="#000000" d="M-2.07213 2.39091C-1.69356 .95633-.84995 .27893 0 0-.84995-.27893-1.69356-.95633-2.07213-2.39091"/>
<path transform="matrix(1.00006,0,0,-1.00006,87.61341,23.966599)" stroke-width=".39848" stroke-linecap="butt" stroke-miterlimit="10" stroke-linejoin="miter" fill="none" stroke="#000000" d="M-10.75282-17.04425H12.36076"/>
<path transform="matrix(1.00006,0,0,-1.00006,100.174167,41.01187)" stroke-width=".39848" stroke-linecap="round" stroke-linejoin="round" fill="none" stroke="#000000" d="M-2.07213 2.39091C-1.69356 .95633-.84995 .27893 0 0-.84995-.27893-1.69356-.95633-2.07213-2.39091"/>
<use data-text="T" xlink:href="#font_3_1" transform="matrix(6.9742186,0,0,-6.9742186,83.43416,37.66342)"/>
<use data-text="A" xlink:href="#font_5_1" transform="matrix(4.9815986,0,0,-4.9815986,88.13945,38.66548)"/>
<path transform="matrix(1.00006,0,0,-1.00006,87.61341,23.966599)" stroke-width=".39848" stroke-linecap="butt" stroke-miterlimit="10" stroke-linejoin="miter" fill="none" stroke="#000000" d="M37.50229-17.04425H59.18134"/>
<path transform="matrix(-1.00006,-0,0,1.00006,124.9187,41.01187)" stroke-width=".39848" stroke-linecap="round" stroke-linejoin="round" fill="none" stroke="#000000" d="M-2.07213 2.39091C-1.69356 .95633-.84995 .27893 0 0-.84995-.27893-1.69356-.95633-2.07213-2.39091"/>
<path transform="matrix(1.00006,0,0,-1.00006,146.7983,41.01187)" stroke-width=".39848" stroke-linecap="round" stroke-miterlimit="10" stroke-linejoin="miter" fill="none" stroke="#000000" d="M0 1.95256C.68224 1.95256 1.2353 1.51546 1.2353 .97627 1.2353 .43709 .68224 0 0 0"/>
</svg>
