<svg xmlns="http://www.w3.org/2000/svg" xmlns:xlink="http://www.w3.org/1999/xlink" xmlns:inkscape="http://www.inkscape.org/namespaces/inkscape" version="1.1" width="56" height="48" viewBox="0 0 56 48">
<defs>
<path id="font_1_2" d="M.9169922 .5666046C.94200137 .61061099 .96598818 .64660647 1.0289917 .6516113 1.0379944 .65260317 1.0479889 .65260317 1.0479889 .6716156 1.0479889 .6756134 1.0439911 .6826172 1.0359955 .6826172 1.0119934 .6826172 .98399356 .6796112 .95899966 .6796112 .9249878 .6796112 .8880005 .6826172 .8549957 .6826172 .848999 .6826172 .83599856 .6826172 .83599856 .66360476 .83599856 .65260317 .8450012 .6516113 .8509979 .6516113 .875 .65060427 .9099884 .64260867 .9099884 .61260989 .9099884 .6016083 .9049988 .5935974 .8969879 .5796051L.6269989 .108551029 .58999636 .604599C.58898928 .6246033 .58699038 .65060427 .6599884 .6516113 .6769867 .6516113 .68699648 .6516113 .68699648 .6716156 .68699648 .6816101 .6759949 .6826172 .6719971 .6826172 .6319885 .6826172 .58999636 .6796112 .5499878 .6796112 .5269928 .6796112 .46798707 .6826172 .44499208 .6826172 .43899537 .6826172 .42599488 .6826172 .42599488 .6626129 .42599488 .6516113 .43598939 .6516113 .44999696 .6516113 .49398805 .6516113 .5009918 .6456146 .5029907 .6266022L.5089874 .54959109 .2559967 .108551029 .21798706 .6156006C.21798706 .62760928 .21798706 .65060427 .2939911 .6516113 .3039856 .6516113 .31498719 .6516113 .31498719 .6716156 .31498719 .6826172 .30299378 .6826172 .30099488 .6826172 .26098634 .6826172 .21899414 .6796112 .17799378 .6796112 .14299011 .6796112 .10699463 .6826172 .07299805 .6826172 .067993167 .6826172 .054992677 .6826172 .054992677 .66360476 .054992677 .6516113 .06399536 .6516113 .07998657 .6516113 .12998963 .6516113 .1309967 .64260867 .1329956 .61460879L.17799378 .0035247803C.1789856-.014465332 .17999268-.022460938 .19400025-.022460938 .20599365-.022460938 .20899964-.016464234 .21798706-.0014648438L.5119934 .5085907 .548996 .0035247803C.5509949-.017471314 .5529938-.022460938 .5649872-.022460938 .5779877-.022460938 .58399966-.012466431 .58898928-.0034637452L.9169922 .5666046Z"/>
<path id="font_1_1" d="M.6279907 .5686035C.6769867 .64660647 .71899417 .6496124 .7559967 .6516113 .7679901 .65260317 .7689972 .6696167 .7689972 .6706085 .7689972 .6786041 .7639923 .6826172 .7559967 .6826172 .7299957 .6826172 .70098879 .6796112 .673996 .6796112 .6409912 .6796112 .6069946 .6826172 .57499697 .6826172 .56900027 .6826172 .55599978 .6826172 .55599978 .66360476 .55599978 .65260317 .5649872 .6516113 .57199099 .6516113 .598999 .6496124 .6179962 .63960269 .6179962 .61860659 .6179962 .6036072 .6029968 .581604 .6029968 .5805969L.29599 .092544559 .22799683 .62161257C.22799683 .63861086 .25099183 .6516113 .29699708 .6516113 .31098939 .6516113 .32199098 .6516113 .32199098 .6716156 .32199098 .680603 .31399537 .6826172 .30799867 .6826172 .2679901 .6826172 .22499085 .6796112 .18399048 .6796112 .1659851 .6796112 .14698792 .680603 .1289978 .680603 .11099243 .680603 .09199524 .6826172 .07499695 .6826172 .067993167 .6826172 .055999757 .6826172 .055999757 .66360476 .055999757 .6516113 .06498718 .6516113 .08099365 .6516113 .13699341 .6516113 .13798523 .64260867 .14099121 .6175995L.21998596 .0005340576C.22299195-.019470215 .22698975-.022460938 .23999024-.022460938 .2559967-.022460938 .2599945-.017471314 .2679901-.004470825L.6279907 .5686035Z"/>
<path id="font_2_1" d="M.48599244 .6046295C.49299623 .63360598 .49499513 .63661196 .5169983 .63861086 .5219879 .63960269 .5569916 .63960269 .57699587 .63960269 .6380005 .63960269 .6639862 .63960269 .68899539 .63160708 .73399356 .61761477 .73599246 .5886383 .73599246 .5526581 .73599246 .53666689 .73599246 .52368167 .72898867 .4717102L.72698977 .46072389C.72698977 .45072938 .73399356 .4457245 .74398806 .4457245 .7589874 .4457245 .7609863 .45472718 .7630005 .47071839L.7899933 .66160586C.7899933 .6756134 .7779999 .6756134 .7599945 .6756134H.14498902C.11999512 .6756134 .117996219 .6756134 .11099243 .65460208L.04798889 .4777069C.04699707 .4737091 .042999269 .46472169 .042999269 .4597168 .042999269 .455719 .04499817 .4457245 .05999756 .4457245 .07299805 .4457245 .07499695 .45072938 .08099365 .4697113 .13899231 .62960818 .17199707 .63960269 .32398988 .63960269H.3659973C.3959961 .63960269 .39698792 .63861086 .39698792 .62960818 .39698792 .62861636 .39698792 .62361147 .3929901 .6086273L.26098634 .082962039C.2519989 .04598999 .24899292 .035995485 .14399719 .035995485 .10798645 .035995485 .09899902 .035995485 .09899902 .01399231 .09899902 .010986328 .100997928 0 .115997318 0 .14399719 0 .17399597 .0029907227 .20199585 .0029907227 .22999573 .0029907227 .2599945 .0039978029 .28799439 .0039978029 .31599427 .0039978029 .34999085 .0039978029 .37799073 .0029907227 .40499879 .0019989014 .43499757 0 .46199037 0 .46998597 0 .4850006 0 .4850006 .021987915 .4850006 .035995485 .47499085 .035995485 .44400025 .035995485 .4249878 .035995485 .40499879 .036987306 .38598634 .037994386 .35198976 .040985109 .34999085 .04498291 .34999085 .05697632 .34999085 .0639801 .34999085 .065979007 .35398866 .07997131L.48599244 .6046295Z"/>
<path id="font_3_1" d="M.19400025 .71099856C.19400025 .7259979 .19400025 .75 .16999817 .75 .14498902 .75 .14498902 .72698977 .14498902 .71099856V-.2110138C.14498902-.22601319 .14498902-.25 .16899109-.25 .19400025-.25 .19400025-.227005 .19400025-.2110138V.71099856Z"/>
<path id="font_4_1" d="M1.2029877 .55859377C1.2509918 .63261416 1.2919922 .63560488 1.3309937 .63760378 1.3430023 .63861086 1.348999 .65260317 1.348999 .66560366 1.348999 .6796112 1.3369904 .6826172 1.3329926 .6826172 1.3199921 .6826172 1.3049927 .6796112 1.2910004 .6796112 1.2769928 .6796112 1.2610016 .6786041 1.2460022 .6786041L1.1869965 .6796112C1.1679993 .6796112 1.1469879 .6826172 1.1279907 .6826172 1.1139984 .6826172 1.1039887 .6756134 1.1039887 .65460208 1.1039887 .63861086 1.118988 .63760378 1.1269989 .63760378 1.1389923 .63661196 1.1819916 .63360598 1.1819916 .6065979 1.1819916 .5946045 1.173996 .5825958 1.1679993 .5736084L.86698916 .11054993 .79100039 .61660769C.8029938 .63461306 .8299866 .63760378 .85899356 .63760378 .8779907 .63760378 .8929901 .63760378 .8929901 .66560366 .8929901 .6776123 .8829956 .6826172 .875 .6826172 .85398867 .6826172 .8299866 .6796112 .80799868 .6796112 .7849884 .6796112 .7619934 .6786041 .7389984 .6786041 .71899417 .6786041 .69898989 .6796112 .6799927 .6796112 .6609955 .6796112 .6399994 .6826172 .621994 .6826172 .6049957 .6826172 .59799197 .6706085 .59799197 .65460208 .59799197 .63760378 .6139984 .63760378 .6269989 .63760378 .6439972 .63760378 .673996 .63760378 .68099978 .62760928 .6839905 .62361147 .69099429 .5746002 .69099429 .5686035 .69099429 .56759646 .69099429 .56559756 .6839905 .555603L.394989 .11054993 .32199098 .6006012C.32199098 .6026001 .31999208 .61260989 .31999208 .6136017 .31999208 .63760378 .38198854 .63760378 .3880005 .63760378 .40499879 .63760378 .42199708 .63760378 .42199708 .66560366 .42199708 .6736145 .4149933 .6826172 .4039917 .6826172 .3829956 .6826172 .35899354 .6796112 .33699037 .6796112 .31399537 .6796112 .29100038 .6786041 .2669983 .6786041 .24699402 .6786041 .22698975 .6796112 .20799256 .6796112 .19599915 .6796112 .15098572 .6826172 .1499939 .6826172 .13699341 .6826172 .12599182 .6756134 .12599182 .65460208 .12599182 .63760378 .14099121 .63760378 .1539917 .63760378 .20999146 .63760378 .20999146 .63261416 .21398926 .60861209L.3039856 .0055389406C.30699159-.012466431 .30899049-.022460938 .33099366-.022460938 .35398866-.022460938 .36099244-.011474609 .36799623-.00047302247L.69999697 .5105896 .776001 .0065307619C.7789917-.013473511 .7799988-.022460938 .8029938-.022460938 .82398989-.022460938 .83099368-.013473511 .84098818 .0015258789L1.2029877 .55859377Z"/>
<path id="font_2_2" d="M.32398988 .6253052C.32398988 .64131167 .31199647 .66329959 .28399659 .66329959 .25698854 .66329959 .22799683 .6372986 .22799683 .6083069 .22799683 .5913086 .24099732 .5703125 .2679901 .5703125 .29699708 .5703125 .32398988 .5983124 .32398988 .6253052M.11999512 .117263797C.115997318 .104263309 .11099243 .09225464 .11099243 .07525635 .11099243 .02822876 .15098572-.009765625 .20599365-.009765625 .30599977-.009765625 .34999085 .12828064 .34999085 .14328003 .34999085 .15628052 .33699037 .15628052 .33399964 .15628052 .31999208 .15628052 .31900025 .15028382 .31498719 .13928223 .2919922 .059249879 .24798584 .018234253 .20899964 .018234253 .18899536 .018234253 .18399048 .031234742 .18399048 .053237916 .18399048 .07624817 .19099427 .09526062 .19999695 .117263797 .20999146 .14428711 .22099304 .17129517 .23199463 .1973114 .24099732 .22131348 .2769928 .3123474 .2809906 .32435609 .28399659 .33436585 .2869873 .3463745 .2869873 .35636903 .2869873 .4033966 .24699402 .44140626 .19198609 .44140626 .09298706 .44140626 .04699707 .3053589 .04699707 .28834535 .04699707 .27534486 .06098938 .27534486 .06399536 .27534486 .07798767 .27534486 .07899475 .28033448 .08198547 .29135133 .10798645 .37738038 .1519928 .4133911 .18899536 .4133911 .20498657 .4133911 .21398926 .4053955 .21398926 .37838746 .21398926 .3553772 .20799256 .34036256 .18299866 .27833558L.11999512 .117263797Z"/>
</defs>
<use data-text="W" xlink:href="#font_1_2" transform="matrix(9.962899,0,0,-9.963197,1.1916123,13.557972)"/>
<use data-text="W" xlink:href="#font_1_2" transform="matrix(9.962899,0,0,-9.963197,44.483919,13.557972)"/>
<use data-text="V" xlink:href="#font_1_1" transform="matrix(9.962899,0,0,-9.963197,2.5746537,45.599897)"/>
<use data-text="V" xlink:href="#font_1_1" transform="matrix(9.962899,0,0,-9.963197,45.86696,45.599897)"/>
<path transform="matrix(1.00003,0,0,-1.00006,28.233437,26.17473)" stroke-width=".39848" stroke-linecap="butt" stroke-miterlimit="10" stroke-linejoin="miter" fill="none" stroke="#000000" d="M-11.75603 15.10707H11.35756"/>
<path transform="matrix(1.00003,0,0,-1.00006,39.790586,11.066754)" stroke-width=".39848" stroke-linecap="round" stroke-linejoin="round" fill="none" stroke="#000000" d="M-2.07213 2.39091C-1.69356 .95633-.84995 .27893 0 0-.84995-.27893-1.69356-.95633-2.07213-2.39091"/>
<use data-text="T" xlink:href="#font_2_1" transform="matrix(6.9740097,0,0,-6.9742186,20.293198,6.9765779)"/>
<use data-text="|" xlink:href="#font_3_1" transform="matrix(6.9740097,0,0,-6.9742186,26.071373,6.9765779)"/>
<use data-text="W" xlink:href="#font_4_1" transform="matrix(4.9814498,0,0,-4.9815986,28.438439,7.9786379)"/>
<path transform="matrix(1.00003,0,0,-1.00006,28.233437,26.17473)" stroke-width=".39848" stroke-linecap="butt" stroke-miterlimit="10" stroke-linejoin="miter" fill="none" stroke="#000000" d="M-21.64574 7.3327V-8.36877"/>
<path transform="matrix(0,-1.00006,1.00003,0,6.5870459,18.84159)" stroke-width=".39848" stroke-linecap="round" stroke-miterlimit="10" stroke-linejoin="miter" fill="none" stroke="#000000" d="M0 1.95256C.68224 1.95256 1.2353 1.51546 1.2353 .97627 1.2353 .43709 .68224 0 0 0"/>
<path transform="matrix(0,1.00006,1.00003,0,6.5870459,34.743257)" stroke-width=".39848" stroke-linecap="round" stroke-linejoin="round" fill="none" stroke="#000000" d="M-2.07213 2.39091C-1.69356 .95633-.84995 .27893 0 0-.84995-.27893-1.69356-.95633-2.07213-2.39091"/>
<use data-text="i" xlink:href="#font_2_2" transform="matrix(6.9740097,0,0,-6.9742186,1.4216309,28.481869)"/>
<path transform="matrix(1.00003,0,0,-1.00006,28.233437,26.17473)" stroke-width=".39848" stroke-linecap="butt" stroke-miterlimit="10" stroke-linejoin="miter" fill="none" stroke="#000000" d="M21.64574 7.3327V-8.36877"/>
<path transform="matrix(0,-1.00006,1.00003,0,49.87983,18.84159)" stroke-width=".39848" stroke-linecap="round" stroke-miterlimit="10" stroke-linejoin="miter" fill="none" stroke="#000000" d="M0 1.95256C.68224 1.95256 1.2353 1.51546 1.2353 .97627 1.2353 .43709 .68224 0 0 0"/>
<path transform="matrix(0,1.00006,1.00003,0,49.87983,34.743257)" stroke-width=".39848" stroke-linecap="round" stroke-linejoin="round" fill="none" stroke="#000000" d="M-2.07213 2.39091C-1.69356 .95633-.84995 .27893 0 0-.84995-.27893-1.69356-.95633-2.07213-2.39091"/>
<use data-text="i" xlink:href="#font_2_2" transform="matrix(6.9740097,0,0,-6.9742186,52.22616,28.481869)"/>
<path transform="matrix(1.00003,0,0,-1.00006,28.233437,26.17473)" stroke-width=".39848" stroke-linecap="butt" stroke-miterlimit="10" stroke-linejoin="miter" fill="none" stroke="#000000" d="M-13.13976-16.93355H12.74129"/>
<path transform="matrix(1.00003,0,0,-1.00006,41.174348,43.109296)" stroke-width=".39848" stroke-linecap="round" stroke-linejoin="round" fill="none" stroke="#000000" d="M-2.07213 2.39091C-1.69356 .95633-.84995 .27893 0 0-.84995-.27893-1.69356-.95633-2.07213-2.39091"/>
<use data-text="T" xlink:href="#font_2_1" transform="matrix(6.9740097,0,0,-6.9742186,25.344353,40.762605)"/>
</svg>
