<?xml version="1.0" encoding="utf-8" standalone="no"?>
<!DOCTYPE svg PUBLIC "-//W3C//DTD SVG 1.1//EN"
  "http://www.w3.org/Graphics/SVG/1.1/DTD/svg11.dtd">
<svg xmlns:xlink="http://www.w3.org/1999/xlink" width="451.038322pt" height="335.824964pt" viewBox="0 0 451.038322 335.824964" xmlns="http://www.w3.org/2000/svg" version="1.1">
 <metadata>
  <rdf:RDF xmlns:dc="http://purl.org/dc/elements/1.1/" xmlns:cc="http://creativecommons.org/ns#" xmlns:rdf="http://www.w3.org/1999/02/22-rdf-syntax-ns#">
   <cc:Work>
    <dc:type rdf:resource="http://purl.org/dc/dcmitype/StillImage"/>
    <dc:date>2025-04-02T13:35:30.933612</dc:date>
    <dc:format>image/svg+xml</dc:format>
    <dc:creator>
     <cc:Agent>
      <dc:title>Matplotlib v3.6.2, https://matplotlib.org/</dc:title>
     </cc:Agent>
    </dc:creator>
   </cc:Work>
  </rdf:RDF>
 </metadata>
 <defs>
  <style type="text/css">*{stroke-linejoin: round; stroke-linecap: butt}</style>
 </defs>
 <g id="figure_1">
  <g id="patch_1">
   <path d="M 0 335.824964 
L 451.038322 335.824964 
L 451.038322 0 
L 0 0 
z
" style="fill: #ffffff"/>
  </g>
  <g id="axes_1">
   <g id="patch_2">
    <path d="M 11.017937 328.624964 
L 443.838322 328.624964 
L 443.838322 8.791863 
L 11.017937 8.791863 
z
" style="fill: #ffffff"/>
   </g>
   <g id="matplotlib.axis_1">
    <g id="xtick_1">
     <g id="line2d_1">
      <defs>
       <path id="mbf66d46849" d="M 0 0 
L 0 3.5 
" style="stroke: #000000; stroke-width: 0.8"/>
      </defs>
      <g>
       <use xlink:href="#mbf66d46849" x="19.341406" y="178.320045" style="stroke: #000000; stroke-width: 0.8"/>
      </g>
     </g>
     <g id="text_1">
      <!-- −1.0 -->
      <g transform="translate(7.2 192.918483) scale(0.1 -0.1)">
       <defs>
        <path id="DejaVuSans-2212" d="M 678 2272 
L 4684 2272 
L 4684 1741 
L 678 1741 
L 678 2272 
z
" transform="scale(0.015625)"/>
        <path id="DejaVuSans-31" d="M 794 531 
L 1825 531 
L 1825 4091 
L 703 3866 
L 703 4441 
L 1819 4666 
L 2450 4666 
L 2450 531 
L 3481 531 
L 3481 0 
L 794 0 
L 794 531 
z
" transform="scale(0.015625)"/>
        <path id="DejaVuSans-2e" d="M 684 794 
L 1344 794 
L 1344 0 
L 684 0 
L 684 794 
z
" transform="scale(0.015625)"/>
        <path id="DejaVuSans-30" d="M 2034 4250 
Q 1547 4250 1301 3770 
Q 1056 3291 1056 2328 
Q 1056 1369 1301 889 
Q 1547 409 2034 409 
Q 2525 409 2770 889 
Q 3016 1369 3016 2328 
Q 3016 3291 2770 3770 
Q 2525 4250 2034 4250 
z
M 2034 4750 
Q 2819 4750 3233 4129 
Q 3647 3509 3647 2328 
Q 3647 1150 3233 529 
Q 2819 -91 2034 -91 
Q 1250 -91 836 529 
Q 422 1150 422 2328 
Q 422 3509 836 4129 
Q 1250 4750 2034 4750 
z
" transform="scale(0.015625)"/>
       </defs>
       <use xlink:href="#DejaVuSans-2212"/>
       <use xlink:href="#DejaVuSans-31" x="83.789062"/>
       <use xlink:href="#DejaVuSans-2e" x="147.412109"/>
       <use xlink:href="#DejaVuSans-30" x="179.199219"/>
      </g>
     </g>
    </g>
    <g id="xtick_2">
     <g id="line2d_2">
      <g>
       <use xlink:href="#mbf66d46849" x="123.384768" y="178.320045" style="stroke: #000000; stroke-width: 0.8"/>
      </g>
     </g>
     <g id="text_2">
      <!-- −0.5 -->
      <g transform="translate(111.243362 192.918483) scale(0.1 -0.1)">
       <defs>
        <path id="DejaVuSans-35" d="M 691 4666 
L 3169 4666 
L 3169 4134 
L 1269 4134 
L 1269 2991 
Q 1406 3038 1543 3061 
Q 1681 3084 1819 3084 
Q 2600 3084 3056 2656 
Q 3513 2228 3513 1497 
Q 3513 744 3044 326 
Q 2575 -91 1722 -91 
Q 1428 -91 1123 -41 
Q 819 9 494 109 
L 494 744 
Q 775 591 1075 516 
Q 1375 441 1709 441 
Q 2250 441 2565 725 
Q 2881 1009 2881 1497 
Q 2881 1984 2565 2268 
Q 2250 2553 1709 2553 
Q 1456 2553 1204 2497 
Q 953 2441 691 2322 
L 691 4666 
z
" transform="scale(0.015625)"/>
       </defs>
       <use xlink:href="#DejaVuSans-2212"/>
       <use xlink:href="#DejaVuSans-30" x="83.789062"/>
       <use xlink:href="#DejaVuSans-2e" x="147.412109"/>
       <use xlink:href="#DejaVuSans-35" x="179.199219"/>
      </g>
     </g>
    </g>
    <g id="xtick_3">
     <g id="line2d_3">
      <g>
       <use xlink:href="#mbf66d46849" x="227.42813" y="178.320045" style="stroke: #000000; stroke-width: 0.8"/>
      </g>
     </g>
    </g>
    <g id="xtick_4">
     <g id="line2d_4">
      <g>
       <use xlink:href="#mbf66d46849" x="331.471491" y="178.320045" style="stroke: #000000; stroke-width: 0.8"/>
      </g>
     </g>
     <g id="text_3">
      <!-- 0.5 -->
      <g transform="translate(323.519929 192.918483) scale(0.1 -0.1)">
       <use xlink:href="#DejaVuSans-30"/>
       <use xlink:href="#DejaVuSans-2e" x="63.623047"/>
       <use xlink:href="#DejaVuSans-35" x="95.410156"/>
      </g>
     </g>
    </g>
    <g id="xtick_5">
     <g id="line2d_5">
      <g>
       <use xlink:href="#mbf66d46849" x="435.514853" y="178.320045" style="stroke: #000000; stroke-width: 0.8"/>
      </g>
     </g>
     <g id="text_4">
      <!-- 1.0 -->
      <g transform="translate(427.56329 192.918483) scale(0.1 -0.1)">
       <use xlink:href="#DejaVuSans-31"/>
       <use xlink:href="#DejaVuSans-2e" x="63.623047"/>
       <use xlink:href="#DejaVuSans-30" x="95.410156"/>
      </g>
     </g>
    </g>
    <g id="xtick_6">
     <g id="line2d_6">
      <defs>
       <path id="m38d6908686" d="M 0 0 
L 0 2 
" style="stroke: #000000; stroke-width: 0.6"/>
      </defs>
      <g>
       <use xlink:href="#m38d6908686" x="40.150079" y="178.320045" style="stroke: #000000; stroke-width: 0.6"/>
      </g>
     </g>
    </g>
    <g id="xtick_7">
     <g id="line2d_7">
      <g>
       <use xlink:href="#m38d6908686" x="60.958751" y="178.320045" style="stroke: #000000; stroke-width: 0.6"/>
      </g>
     </g>
    </g>
    <g id="xtick_8">
     <g id="line2d_8">
      <g>
       <use xlink:href="#m38d6908686" x="81.767423" y="178.320045" style="stroke: #000000; stroke-width: 0.6"/>
      </g>
     </g>
    </g>
    <g id="xtick_9">
     <g id="line2d_9">
      <g>
       <use xlink:href="#m38d6908686" x="102.576096" y="178.320045" style="stroke: #000000; stroke-width: 0.6"/>
      </g>
     </g>
    </g>
    <g id="xtick_10">
     <g id="line2d_10">
      <g>
       <use xlink:href="#m38d6908686" x="144.19344" y="178.320045" style="stroke: #000000; stroke-width: 0.6"/>
      </g>
     </g>
    </g>
    <g id="xtick_11">
     <g id="line2d_11">
      <g>
       <use xlink:href="#m38d6908686" x="165.002113" y="178.320045" style="stroke: #000000; stroke-width: 0.6"/>
      </g>
     </g>
    </g>
    <g id="xtick_12">
     <g id="line2d_12">
      <g>
       <use xlink:href="#m38d6908686" x="185.810785" y="178.320045" style="stroke: #000000; stroke-width: 0.6"/>
      </g>
     </g>
    </g>
    <g id="xtick_13">
     <g id="line2d_13">
      <g>
       <use xlink:href="#m38d6908686" x="206.619457" y="178.320045" style="stroke: #000000; stroke-width: 0.6"/>
      </g>
     </g>
    </g>
    <g id="xtick_14">
     <g id="line2d_14">
      <g>
       <use xlink:href="#m38d6908686" x="248.236802" y="178.320045" style="stroke: #000000; stroke-width: 0.6"/>
      </g>
     </g>
    </g>
    <g id="xtick_15">
     <g id="line2d_15">
      <g>
       <use xlink:href="#m38d6908686" x="269.045474" y="178.320045" style="stroke: #000000; stroke-width: 0.6"/>
      </g>
     </g>
    </g>
    <g id="xtick_16">
     <g id="line2d_16">
      <g>
       <use xlink:href="#m38d6908686" x="289.854147" y="178.320045" style="stroke: #000000; stroke-width: 0.6"/>
      </g>
     </g>
    </g>
    <g id="xtick_17">
     <g id="line2d_17">
      <g>
       <use xlink:href="#m38d6908686" x="310.662819" y="178.320045" style="stroke: #000000; stroke-width: 0.6"/>
      </g>
     </g>
    </g>
    <g id="xtick_18">
     <g id="line2d_18">
      <g>
       <use xlink:href="#m38d6908686" x="352.280164" y="178.320045" style="stroke: #000000; stroke-width: 0.6"/>
      </g>
     </g>
    </g>
    <g id="xtick_19">
     <g id="line2d_19">
      <g>
       <use xlink:href="#m38d6908686" x="373.088836" y="178.320045" style="stroke: #000000; stroke-width: 0.6"/>
      </g>
     </g>
    </g>
    <g id="xtick_20">
     <g id="line2d_20">
      <g>
       <use xlink:href="#m38d6908686" x="393.897508" y="178.320045" style="stroke: #000000; stroke-width: 0.6"/>
      </g>
     </g>
    </g>
    <g id="xtick_21">
     <g id="line2d_21">
      <g>
       <use xlink:href="#m38d6908686" x="414.706181" y="178.320045" style="stroke: #000000; stroke-width: 0.6"/>
      </g>
     </g>
    </g>
   </g>
   <g id="matplotlib.axis_2">
    <g id="ytick_1">
     <g id="line2d_22">
      <defs>
       <path id="m2e8445b7fb" d="M 0 0 
L -3.5 0 
" style="stroke: #000000; stroke-width: 0.8"/>
      </defs>
      <g>
       <use xlink:href="#m2e8445b7fb" x="227.42813" y="322.476703" style="stroke: #000000; stroke-width: 0.8"/>
      </g>
     </g>
     <g id="text_5">
      <!-- −1.5 -->
      <g transform="translate(196.145317 326.275921) scale(0.1 -0.1)">
       <use xlink:href="#DejaVuSans-2212"/>
       <use xlink:href="#DejaVuSans-31" x="83.789062"/>
       <use xlink:href="#DejaVuSans-2e" x="147.412109"/>
       <use xlink:href="#DejaVuSans-35" x="179.199219"/>
      </g>
     </g>
    </g>
    <g id="ytick_2">
     <g id="line2d_23">
      <g>
       <use xlink:href="#m2e8445b7fb" x="227.42813" y="274.424484" style="stroke: #000000; stroke-width: 0.8"/>
      </g>
     </g>
     <g id="text_6">
      <!-- −1.0 -->
      <g transform="translate(196.145317 278.223702) scale(0.1 -0.1)">
       <use xlink:href="#DejaVuSans-2212"/>
       <use xlink:href="#DejaVuSans-31" x="83.789062"/>
       <use xlink:href="#DejaVuSans-2e" x="147.412109"/>
       <use xlink:href="#DejaVuSans-30" x="179.199219"/>
      </g>
     </g>
    </g>
    <g id="ytick_3">
     <g id="line2d_24">
      <g>
       <use xlink:href="#m2e8445b7fb" x="227.42813" y="226.372264" style="stroke: #000000; stroke-width: 0.8"/>
      </g>
     </g>
     <g id="text_7">
      <!-- −0.5 -->
      <g transform="translate(196.145317 230.171483) scale(0.1 -0.1)">
       <use xlink:href="#DejaVuSans-2212"/>
       <use xlink:href="#DejaVuSans-30" x="83.789062"/>
       <use xlink:href="#DejaVuSans-2e" x="147.412109"/>
       <use xlink:href="#DejaVuSans-35" x="179.199219"/>
      </g>
     </g>
    </g>
    <g id="ytick_4">
     <g id="line2d_25">
      <g>
       <use xlink:href="#m2e8445b7fb" x="227.42813" y="178.320045" style="stroke: #000000; stroke-width: 0.8"/>
      </g>
     </g>
    </g>
    <g id="ytick_5">
     <g id="line2d_26">
      <g>
       <use xlink:href="#m2e8445b7fb" x="227.42813" y="130.267826" style="stroke: #000000; stroke-width: 0.8"/>
      </g>
     </g>
     <g id="text_8">
      <!-- 0.5 -->
      <g transform="translate(204.525005 134.067045) scale(0.1 -0.1)">
       <use xlink:href="#DejaVuSans-30"/>
       <use xlink:href="#DejaVuSans-2e" x="63.623047"/>
       <use xlink:href="#DejaVuSans-35" x="95.410156"/>
      </g>
     </g>
    </g>
    <g id="ytick_6">
     <g id="line2d_27">
      <g>
       <use xlink:href="#m2e8445b7fb" x="227.42813" y="82.215607" style="stroke: #000000; stroke-width: 0.8"/>
      </g>
     </g>
     <g id="text_9">
      <!-- 1.0 -->
      <g transform="translate(204.525005 86.014826) scale(0.1 -0.1)">
       <use xlink:href="#DejaVuSans-31"/>
       <use xlink:href="#DejaVuSans-2e" x="63.623047"/>
       <use xlink:href="#DejaVuSans-30" x="95.410156"/>
      </g>
     </g>
    </g>
    <g id="ytick_7">
     <g id="line2d_28">
      <g>
       <use xlink:href="#m2e8445b7fb" x="227.42813" y="34.163388" style="stroke: #000000; stroke-width: 0.8"/>
      </g>
     </g>
     <g id="text_10">
      <!-- 1.5 -->
      <g transform="translate(204.525005 37.962606) scale(0.1 -0.1)">
       <use xlink:href="#DejaVuSans-31"/>
       <use xlink:href="#DejaVuSans-2e" x="63.623047"/>
       <use xlink:href="#DejaVuSans-35" x="95.410156"/>
      </g>
     </g>
    </g>
    <g id="ytick_8">
     <g id="line2d_29">
      <defs>
       <path id="m43f3681c7d" d="M 0 0 
L -2 0 
" style="stroke: #000000; stroke-width: 0.6"/>
      </defs>
      <g>
       <use xlink:href="#m43f3681c7d" x="227.42813" y="312.866259" style="stroke: #000000; stroke-width: 0.6"/>
      </g>
     </g>
    </g>
    <g id="ytick_9">
     <g id="line2d_30">
      <g>
       <use xlink:href="#m43f3681c7d" x="227.42813" y="303.255815" style="stroke: #000000; stroke-width: 0.6"/>
      </g>
     </g>
    </g>
    <g id="ytick_10">
     <g id="line2d_31">
      <g>
       <use xlink:href="#m43f3681c7d" x="227.42813" y="293.645371" style="stroke: #000000; stroke-width: 0.6"/>
      </g>
     </g>
    </g>
    <g id="ytick_11">
     <g id="line2d_32">
      <g>
       <use xlink:href="#m43f3681c7d" x="227.42813" y="284.034927" style="stroke: #000000; stroke-width: 0.6"/>
      </g>
     </g>
    </g>
    <g id="ytick_12">
     <g id="line2d_33">
      <g>
       <use xlink:href="#m43f3681c7d" x="227.42813" y="264.81404" style="stroke: #000000; stroke-width: 0.6"/>
      </g>
     </g>
    </g>
    <g id="ytick_13">
     <g id="line2d_34">
      <g>
       <use xlink:href="#m43f3681c7d" x="227.42813" y="255.203596" style="stroke: #000000; stroke-width: 0.6"/>
      </g>
     </g>
    </g>
    <g id="ytick_14">
     <g id="line2d_35">
      <g>
       <use xlink:href="#m43f3681c7d" x="227.42813" y="245.593152" style="stroke: #000000; stroke-width: 0.6"/>
      </g>
     </g>
    </g>
    <g id="ytick_15">
     <g id="line2d_36">
      <g>
       <use xlink:href="#m43f3681c7d" x="227.42813" y="235.982708" style="stroke: #000000; stroke-width: 0.6"/>
      </g>
     </g>
    </g>
    <g id="ytick_16">
     <g id="line2d_37">
      <g>
       <use xlink:href="#m43f3681c7d" x="227.42813" y="216.761821" style="stroke: #000000; stroke-width: 0.6"/>
      </g>
     </g>
    </g>
    <g id="ytick_17">
     <g id="line2d_38">
      <g>
       <use xlink:href="#m43f3681c7d" x="227.42813" y="207.151377" style="stroke: #000000; stroke-width: 0.6"/>
      </g>
     </g>
    </g>
    <g id="ytick_18">
     <g id="line2d_39">
      <g>
       <use xlink:href="#m43f3681c7d" x="227.42813" y="197.540933" style="stroke: #000000; stroke-width: 0.6"/>
      </g>
     </g>
    </g>
    <g id="ytick_19">
     <g id="line2d_40">
      <g>
       <use xlink:href="#m43f3681c7d" x="227.42813" y="187.930489" style="stroke: #000000; stroke-width: 0.6"/>
      </g>
     </g>
    </g>
    <g id="ytick_20">
     <g id="line2d_41">
      <g>
       <use xlink:href="#m43f3681c7d" x="227.42813" y="168.709601" style="stroke: #000000; stroke-width: 0.6"/>
      </g>
     </g>
    </g>
    <g id="ytick_21">
     <g id="line2d_42">
      <g>
       <use xlink:href="#m43f3681c7d" x="227.42813" y="159.099158" style="stroke: #000000; stroke-width: 0.6"/>
      </g>
     </g>
    </g>
    <g id="ytick_22">
     <g id="line2d_43">
      <g>
       <use xlink:href="#m43f3681c7d" x="227.42813" y="149.488714" style="stroke: #000000; stroke-width: 0.6"/>
      </g>
     </g>
    </g>
    <g id="ytick_23">
     <g id="line2d_44">
      <g>
       <use xlink:href="#m43f3681c7d" x="227.42813" y="139.87827" style="stroke: #000000; stroke-width: 0.6"/>
      </g>
     </g>
    </g>
    <g id="ytick_24">
     <g id="line2d_45">
      <g>
       <use xlink:href="#m43f3681c7d" x="227.42813" y="120.657382" style="stroke: #000000; stroke-width: 0.6"/>
      </g>
     </g>
    </g>
    <g id="ytick_25">
     <g id="line2d_46">
      <g>
       <use xlink:href="#m43f3681c7d" x="227.42813" y="111.046938" style="stroke: #000000; stroke-width: 0.6"/>
      </g>
     </g>
    </g>
    <g id="ytick_26">
     <g id="line2d_47">
      <g>
       <use xlink:href="#m43f3681c7d" x="227.42813" y="101.436495" style="stroke: #000000; stroke-width: 0.6"/>
      </g>
     </g>
    </g>
    <g id="ytick_27">
     <g id="line2d_48">
      <g>
       <use xlink:href="#m43f3681c7d" x="227.42813" y="91.826051" style="stroke: #000000; stroke-width: 0.6"/>
      </g>
     </g>
    </g>
    <g id="ytick_28">
     <g id="line2d_49">
      <g>
       <use xlink:href="#m43f3681c7d" x="227.42813" y="72.605163" style="stroke: #000000; stroke-width: 0.6"/>
      </g>
     </g>
    </g>
    <g id="ytick_29">
     <g id="line2d_50">
      <g>
       <use xlink:href="#m43f3681c7d" x="227.42813" y="62.994719" style="stroke: #000000; stroke-width: 0.6"/>
      </g>
     </g>
    </g>
    <g id="ytick_30">
     <g id="line2d_51">
      <g>
       <use xlink:href="#m43f3681c7d" x="227.42813" y="53.384275" style="stroke: #000000; stroke-width: 0.6"/>
      </g>
     </g>
    </g>
    <g id="ytick_31">
     <g id="line2d_52">
      <g>
       <use xlink:href="#m43f3681c7d" x="227.42813" y="43.773832" style="stroke: #000000; stroke-width: 0.6"/>
      </g>
     </g>
    </g>
    <g id="ytick_32">
     <g id="line2d_53">
      <g>
       <use xlink:href="#m43f3681c7d" x="227.42813" y="24.552944" style="stroke: #000000; stroke-width: 0.6"/>
      </g>
     </g>
    </g>
    <g id="ytick_33">
     <g id="line2d_54">
      <g>
       <use xlink:href="#m43f3681c7d" x="227.42813" y="14.9425" style="stroke: #000000; stroke-width: 0.6"/>
      </g>
     </g>
    </g>
   </g>
   <g id="line2d_55">
    <path d="M 19.341406 178.320045 
L 33.994342 199.407562 
L 42.17435 210.796989 
L 49.239401 220.242016 
L 54.807022 227.354628 
L 61.15704 235.041321 
L 66.794044 241.430551 
L 71.150235 246.057415 
L 75.456885 250.343824 
L 80.667885 255.12177 
L 85.03355 258.760018 
L 89.008712 261.769362 
L 92.916872 264.435113 
L 97.221043 267.023843 
L 101.106876 269.039621 
L 104.53997 270.561028 
L 108.135389 271.888715 
L 111.637261 272.916915 
L 114.789431 273.616429 
L 118.586091 274.172381 
L 122.243121 274.410209 
L 124.422112 274.412698 
L 127.697986 274.220792 
L 131.172415 273.76099 
L 134.727551 273.018753 
L 137.79192 272.160007 
L 141.39419 270.893898 
L 144.93506 269.382559 
L 148.666809 267.508252 
L 152.084067 265.543483 
L 156.231122 262.847897 
L 159.758223 260.294163 
L 163.271253 257.519603 
L 167.028219 254.306121 
L 171.879709 249.796453 
L 177.414308 244.18524 
L 182.423541 238.709296 
L 186.587521 233.893194 
L 192.371268 226.843625 
L 198.266701 219.277771 
L 205.631223 209.378282 
L 213.377751 198.553733 
L 224.719581 182.248888 
L 241.126619 158.585765 
L 250.390097 145.666972 
L 256.522332 137.45058 
L 261.809987 130.644354 
L 267.692534 123.431074 
L 273.316736 116.938406 
L 278.323105 111.529685 
L 283.292575 106.537936 
L 286.997639 103.077601 
L 290.888861 99.696998 
L 294.965089 96.446779 
L 298.590869 93.815863 
L 302.793027 91.083919 
L 305.867236 89.307039 
L 309.834464 87.297836 
L 312.873684 85.979115 
L 316.255158 84.740446 
L 319.971045 83.660589 
L 323.308292 82.944553 
L 326.386561 82.498669 
L 329.166707 82.273783 
L 332.640426 82.230572 
L 335.706521 82.411983 
L 339.239617 82.875782 
L 343.152649 83.706238 
L 346.02483 84.526085 
L 348.761448 85.47131 
L 352.077928 86.829044 
L 355.991123 88.725699 
L 359.527207 90.708668 
L 363.062723 92.940898 
L 367.43815 96.039395 
L 371.105272 98.913372 
L 376.119909 103.235435 
L 379.543317 106.434714 
L 384.794585 111.712184 
L 389.636573 116.949936 
L 395.677179 123.940449 
L 401.784987 131.468039 
L 408.88686 140.716789 
L 415.963281 150.362088 
L 424.092107 161.828375 
L 435.514853 178.320045 
L 435.514853 178.320045 
" clip-path="url(#p091ace95bd)" style="fill: none; stroke: #0000ff; stroke-linecap: square"/>
   </g>
   <g id="line2d_56">
    <path d="M 19.341406 178.320045 
L 36.021525 190.29346 
L 44.571611 196.184351 
L 52.362959 201.296058 
L 58.833321 205.302654 
L 65.910418 209.389053 
L 72.521567 212.88715 
L 78.100245 215.572581 
L 83.468298 217.907498 
L 87.985689 219.67162 
L 94.134422 221.762412 
L 98.891985 223.124262 
L 103.450272 224.212411 
L 108.454391 225.156649 
L 113.487705 225.836839 
L 117.065951 226.153772 
L 121.09917 226.343659 
L 125.851671 226.338941 
L 129.280061 226.182061 
L 133.32147 225.83255 
L 138.664569 225.099339 
L 143.664794 224.137478 
L 148.451497 222.972097 
L 152.753673 221.725581 
L 157.96822 219.96987 
L 163.301316 217.907466 
L 167.541429 216.083992 
L 173.33455 213.344151 
L 179.288386 210.249525 
L 184.240479 207.478046 
L 189.833234 204.152972 
L 196.386187 200.024647 
L 204.428382 194.672357 
L 214.697789 187.498761 
L 227.913435 177.967975 
L 242.553766 167.441986 
L 251.075856 161.526491 
L 259.595674 155.890071 
L 266.263959 151.732599 
L 271.780183 148.495138 
L 277.875696 145.15901 
L 284.035767 142.072759 
L 288.369534 140.087764 
L 293.908273 137.790098 
L 298.434136 136.122227 
L 302.580633 134.766856 
L 307.117007 133.479666 
L 311.359791 132.465953 
L 316.796558 131.442371 
L 320.579192 130.916094 
L 325.387646 130.470382 
L 330.110931 130.277963 
L 334.287741 130.311254 
L 339.656859 130.634279 
L 344.580881 131.205909 
L 349.322773 132.00244 
L 354.725674 133.19893 
L 358.555992 134.229478 
L 362.715316 135.515358 
L 367.797627 137.315079 
L 373.096492 139.448248 
L 378.051224 141.668117 
L 384.16394 144.687825 
L 389.537452 147.579687 
L 396.750208 151.775631 
L 403.061373 155.706829 
L 411.213017 161.082704 
L 417.937527 165.717382 
L 430.697244 174.828099 
L 435.514853 178.320045 
L 435.514853 178.320045 
" clip-path="url(#p091ace95bd)" style="fill: none; stroke: #ff0000; stroke-linecap: square"/>
   </g>
   <g id="line2d_57">
    <path d="M 19.341406 178.320045 
L 33.032756 148.733834 
L 41.777584 130.418222 
L 49.196957 115.520225 
L 55.106771 104.207855 
L 60.744435 93.964687 
L 66.283791 84.494599 
L 69.783747 78.84517 
L 74.593497 71.537626 
L 78.762581 65.657506 
L 82.373614 60.924279 
L 85.653199 56.927426 
L 88.659797 53.524463 
L 92.598021 49.45701 
L 95.862811 46.429781 
L 99.466564 43.460508 
L 103.230038 40.785799 
L 106.697585 38.714142 
L 109.140931 37.483826 
L 111.108065 36.63247 
L 113.891773 35.641402 
L 116.854812 34.863366 
L 119.048948 34.472135 
L 121.611834 34.215026 
L 123.594793 34.164112 
L 126.369368 34.309711 
L 129.365957 34.750736 
L 132.432747 35.506287 
L 135.592902 36.605044 
L 137.962695 37.640778 
L 140.613589 39.012663 
L 143.899515 41.022588 
L 147.390986 43.528305 
L 150.612334 46.172454 
L 153.901399 49.194566 
L 157.071105 52.408311 
L 160.675945 56.41317 
L 164.533282 61.09803 
L 168.278796 66.027557 
L 172.166589 71.52381 
L 176.442859 77.993295 
L 180.776703 84.97626 
L 185.528639 93.090869 
L 190.106146 101.322755 
L 195.691286 111.860531 
L 200.701185 121.717036 
L 208.442727 137.56355 
L 215.967365 153.501028 
L 228.742754 181.181015 
L 241.045395 207.748432 
L 249.415811 225.300131 
L 256.888921 240.345408 
L 262.190624 250.551696 
L 267.506304 260.320475 
L 271.702135 267.661518 
L 276.622065 275.810873 
L 280.685625 282.138203 
L 284.367116 287.533972 
L 288.193729 292.784705 
L 292.513161 298.251926 
L 296.355612 302.687581 
L 299.990922 306.499152 
L 303.574336 309.878573 
L 306.829223 312.614771 
L 309.703166 314.761395 
L 312.625054 316.680518 
L 315.531356 318.322357 
L 318.312566 319.641216 
L 320.608739 320.542411 
L 323.615125 321.463842 
L 326.49559 322.070114 
L 329.235459 322.394567 
L 331.091286 322.474328 
L 333.985824 322.372852 
L 337.132613 321.950496 
L 339.540434 321.408357 
L 342.243679 320.57446 
L 345.326851 319.334262 
L 348.285522 317.856873 
L 351.121095 316.179671 
L 353.206032 314.78511 
L 356.183487 312.559531 
L 358.889449 310.301514 
L 361.98353 307.449968 
L 365.072652 304.321943 
L 367.685888 301.461557 
L 371.07955 297.461579 
L 374.880703 292.610572 
L 379.352673 286.42298 
L 383.506733 280.233324 
L 387.656793 273.649473 
L 391.474547 267.261795 
L 397.126362 257.26959 
L 402.806398 246.648832 
L 408.756929 234.985059 
L 415.259186 221.720704 
L 423.043555 205.302581 
L 435.514853 178.320045 
L 435.514853 178.320045 
" clip-path="url(#p091ace95bd)" style="fill: none; stroke: #008000; stroke-linecap: square"/>
   </g>
   <g id="patch_3">
    <path d="M 227.42813 328.624964 
L 227.42813 8.791863 
" style="fill: none; stroke: #000000; stroke-width: 0.8; stroke-linejoin: miter; stroke-linecap: square"/>
   </g>
   <g id="patch_4">
    <path d="M 11.017937 178.320045 
L 443.838322 178.320045 
" style="fill: none; stroke: #000000; stroke-width: 0.8; stroke-linejoin: miter; stroke-linecap: square"/>
   </g>
   <g id="text_11">
    <!-- $\frac{1}{2}\,f$ -->
    <g transform="translate(322.511491 124.177382) scale(0.16 -0.16)">
     <defs>
      <path id="Cmr10-31" d="M 594 0 
L 594 225 
Q 1394 225 1394 428 
L 1394 3788 
Q 1063 3628 556 3628 
L 556 3853 
Q 1341 3853 1741 4263 
L 1831 4263 
Q 1853 4263 1873 4245 
Q 1894 4228 1894 4206 
L 1894 428 
Q 1894 225 2694 225 
L 2694 0 
L 594 0 
z
" transform="scale(0.015625)"/>
      <path id="Cmr10-32" d="M 319 0 
L 319 172 
Q 319 188 331 206 
L 1325 1306 
Q 1550 1550 1690 1715 
Q 1831 1881 1968 2097 
Q 2106 2313 2186 2536 
Q 2266 2759 2266 3009 
Q 2266 3272 2169 3511 
Q 2072 3750 1880 3894 
Q 1688 4038 1416 4038 
Q 1138 4038 916 3870 
Q 694 3703 603 3438 
Q 628 3444 672 3444 
Q 816 3444 917 3347 
Q 1019 3250 1019 3097 
Q 1019 2950 917 2848 
Q 816 2747 672 2747 
Q 522 2747 420 2851 
Q 319 2956 319 3097 
Q 319 3338 409 3548 
Q 500 3759 670 3923 
Q 841 4088 1055 4175 
Q 1269 4263 1509 4263 
Q 1875 4263 2190 4108 
Q 2506 3953 2690 3670 
Q 2875 3388 2875 3009 
Q 2875 2731 2753 2481 
Q 2631 2231 2440 2026 
Q 2250 1822 1953 1562 
Q 1656 1303 1563 1216 
L 838 519 
L 1453 519 
Q 1906 519 2211 526 
Q 2516 534 2534 550 
Q 2609 631 2688 1141 
L 2875 1141 
L 2694 0 
L 319 0 
z
" transform="scale(0.015625)"/>
      <path id="Cmmi10-66" d="M 622 -1056 
Q 741 -1147 909 -1147 
Q 1138 -1147 1281 -641 
Q 1341 -397 1606 966 
L 1900 2534 
L 1350 2534 
Q 1288 2534 1288 2619 
Q 1313 2759 1369 2759 
L 1941 2759 
L 2016 3175 
Q 2053 3369 2084 3508 
Q 2116 3647 2152 3765 
Q 2188 3884 2259 4031 
Q 2369 4241 2555 4377 
Q 2741 4513 2956 4513 
Q 3097 4513 3230 4461 
Q 3363 4409 3447 4306 
Q 3531 4203 3531 4063 
Q 3531 3900 3423 3779 
Q 3316 3659 3163 3659 
Q 3059 3659 2986 3723 
Q 2913 3788 2913 3891 
Q 2913 4031 3008 4136 
Q 3103 4241 3244 4256 
Q 3125 4347 2950 4347 
Q 2853 4347 2767 4256 
Q 2681 4166 2656 4063 
Q 2616 3900 2478 3181 
L 2400 2759 
L 3059 2759 
Q 3122 2759 3122 2675 
Q 3119 2659 3109 2620 
Q 3100 2581 3083 2557 
Q 3066 2534 3041 2534 
L 2356 2534 
L 2059 972 
Q 2003 631 1929 279 
Q 1856 -72 1723 -442 
Q 1591 -813 1384 -1063 
Q 1178 -1313 897 -1313 
Q 681 -1313 511 -1189 
Q 341 -1066 341 -863 
Q 341 -700 445 -579 
Q 550 -459 709 -459 
Q 816 -459 887 -523 
Q 959 -588 959 -691 
Q 959 -828 857 -942 
Q 756 -1056 622 -1056 
z
" transform="scale(0.015625)"/>
     </defs>
     <use xlink:href="#Cmr10-31" transform="translate(0 38.373438) scale(0.7)"/>
     <use xlink:href="#Cmr10-32" transform="translate(0 -39.503125) scale(0.7)"/>
     <use xlink:href="#Cmmi10-66" transform="translate(62.132454 0.873437)"/>
     <path d="M 0 13.373437 
L 0 19.623437 
L 35 19.623437 
L 35 13.373437 
L 0 13.373437 
z
"/>
    </g>
   </g>
   <g id="text_12">
    <!-- $f$ -->
    <g transform="translate(327.551491 76.987663) scale(0.16 -0.16)">
     <use xlink:href="#Cmmi10-66" transform="translate(0 0.484375)"/>
    </g>
   </g>
   <g id="text_13">
    <!-- $f+g$ -->
    <g transform="translate(314.671491 19.325) scale(0.16 -0.16)">
     <defs>
      <path id="Cmr10-2b" d="M 481 1472 
Q 428 1472 393 1512 
Q 359 1553 359 1600 
Q 359 1647 393 1687 
Q 428 1728 481 1728 
L 2363 1728 
L 2363 3616 
Q 2363 3666 2400 3698 
Q 2438 3731 2491 3731 
Q 2538 3731 2578 3698 
Q 2619 3666 2619 3616 
L 2619 1728 
L 4500 1728 
Q 4547 1728 4581 1687 
Q 4616 1647 4616 1600 
Q 4616 1553 4581 1512 
Q 4547 1472 4500 1472 
L 2619 1472 
L 2619 -416 
Q 2619 -466 2578 -498 
Q 2538 -531 2491 -531 
Q 2438 -531 2400 -498 
Q 2363 -466 2363 -416 
L 2363 1472 
L 481 1472 
z
" transform="scale(0.015625)"/>
      <path id="Cmmi10-67" d="M 91 -916 
Q 91 -759 198 -642 
Q 306 -525 459 -525 
Q 563 -525 633 -589 
Q 703 -653 703 -756 
Q 703 -872 637 -964 
Q 572 -1056 469 -1094 
Q 641 -1147 1006 -1147 
Q 1300 -1147 1544 -920 
Q 1788 -694 1863 -397 
L 2047 353 
Q 1700 0 1325 0 
Q 1050 0 854 140 
Q 659 281 556 515 
Q 453 750 453 1013 
Q 453 1306 573 1628 
Q 694 1950 911 2225 
Q 1128 2500 1409 2664 
Q 1691 2828 2003 2828 
Q 2191 2828 2341 2725 
Q 2491 2622 2578 2450 
Q 2641 2700 2853 2700 
Q 2934 2700 2990 2651 
Q 3047 2603 3047 2522 
Q 3047 2503 3045 2493 
Q 3044 2484 3041 2472 
L 2309 -434 
Q 2259 -634 2125 -800 
Q 1991 -966 1809 -1077 
Q 1628 -1188 1412 -1250 
Q 1197 -1313 997 -1313 
Q 631 -1313 361 -1242 
Q 91 -1172 91 -916 
z
M 1338 166 
Q 1747 166 2144 728 
L 2497 2125 
Q 2453 2347 2322 2505 
Q 2191 2663 1991 2663 
Q 1778 2663 1589 2489 
Q 1400 2316 1275 2075 
Q 1156 1844 1045 1411 
Q 934 978 934 728 
Q 934 509 1034 337 
Q 1134 166 1338 166 
z
" transform="scale(0.015625)"/>
     </defs>
     <use xlink:href="#Cmmi10-66" transform="translate(0 0.484375)"/>
     <use xlink:href="#Cmr10-2b" transform="translate(66.435547 0.484375)"/>
     <use xlink:href="#Cmmi10-67" transform="translate(161.679688 0.484375)"/>
    </g>
   </g>
  </g>
 </g>
 <defs>
  <clipPath id="p091ace95bd">
   <rect x="11.017937" y="8.791863" width="432.820385" height="319.833101"/>
  </clipPath>
 </defs>
</svg>
